<svg width="24" height="24" viewBox="0 0 24 24" fill="none" xmlns="http://www.w3.org/2000/svg">
<path d="M12.0008 7.48943C12.3161 7.48943 12.6185 7.36699 12.8414 7.14906C13.0644 6.93113 13.1896 6.63555 13.1896 6.32735C13.1896 6.01915 13.0644 5.72357 12.8414 5.50564C12.6185 5.28771 12.3161 5.16528 12.0008 5.16528C11.6855 5.16528 11.3831 5.28771 11.1602 5.50564C10.9372 5.72357 10.812 6.01915 10.812 6.32735C10.812 6.63555 10.9372 6.93113 11.1602 7.14906C11.3831 7.36699 11.6855 7.48943 12.0008 7.48943ZM20.5585 17.8986C20.5585 14.9911 20.5585 13.361 20.5585 10.4535H20.6897C21.9634 10.4535 22.4868 8.85296 21.4456 8.13216L13.1019 2.3434C12.7802 2.12001 12.3954 2 12.0008 2C11.6062 2 11.2214 2.12001 10.8997 2.3434L2.55313 8.13216C1.5148 8.85296 2.03539 10.4521 3.30906 10.4521H3.44313V17.8972C2.58594 18.4354 2.01685 19.3751 2.01685 20.4444V22.3029C2.01685 22.4878 2.09198 22.6651 2.22572 22.7958C2.35946 22.9266 2.54085 23 2.72999 23H21.2716C21.4607 23 21.6421 22.9266 21.7759 22.7958C21.9096 22.6651 21.9847 22.4878 21.9847 22.3029V20.4444C21.9847 19.3751 21.4171 18.4354 20.5585 17.8986ZM11.7241 3.48108C11.8044 3.42549 11.9003 3.39564 11.9987 3.39564C12.097 3.39564 12.193 3.42549 12.2732 3.48108L20.316 9.05791H3.68274L11.7255 3.48108H11.7241ZM19.1293 10.4521V17.4315C19.0506 17.4258 18.9716 17.423 18.8926 17.4232H16.2768V10.4535H19.1293V10.4521ZM4.86941 17.4315V10.4535H7.72196V17.4246H5.10617C5.0263 17.4246 4.94643 17.4273 4.86798 17.4329L4.86941 17.4315ZM5.10759 18.8174H18.8954C19.8139 18.8174 20.5585 19.5452 20.5585 20.4444V21.6058H3.44313V20.4444C3.44313 19.5452 4.18907 18.8174 5.10759 18.8174ZM11.2877 17.4232H9.14824V10.4535H11.2877V17.4246V17.4232ZM12.7139 17.4232V10.4535H14.8534V17.4246H12.7139V17.4232Z" fill="#606060"/>
</svg>
