<svg width="166" height="33" viewBox="0 0 166 33" fill="none" xmlns="http://www.w3.org/2000/svg">
<path d="M164.09 10.0962C163.7 10.0973 163.319 10.2149 162.999 10.4332C162.679 10.6515 162.434 10.9603 162.297 11.3184L158.712 20.6901L155.126 11.3184C155.037 11.0868 154.903 10.8745 154.73 10.6939C154.557 10.5132 154.35 10.3677 154.12 10.2655C153.89 10.1633 153.642 10.1066 153.389 10.0985C153.137 10.0903 152.885 10.131 152.649 10.2182C152.413 10.3054 152.196 10.4373 152.012 10.6065C151.828 10.7757 151.679 10.9788 151.575 11.2043C151.471 11.4297 151.413 11.6731 151.404 11.9205C151.396 12.1679 151.438 12.4144 151.527 12.6461L156.638 26.0183L156.178 27.2366C155.809 28.1503 155.401 28.535 154.831 28.6775C154.766 28.6951 154.702 28.7068 154.632 28.7185C154.614 28.7185 154.602 28.7185 154.584 28.7185C154.217 28.8228 153.889 29.0304 153.641 29.3158C153.393 29.6011 153.236 29.9514 153.19 30.3234V30.792C153.248 31.2498 153.473 31.6717 153.823 31.9799C154.173 32.288 154.626 32.4618 155.096 32.4691H155.124C155.214 32.4691 155.301 32.4515 155.387 32.4457C155.401 32.4457 155.405 32.4457 155.411 32.4457C158.379 32.1782 158.913 30.6045 160.12 27.5802L165.879 12.6422C165.987 12.3574 166.023 12.0513 165.985 11.7497C165.947 11.4481 165.835 11.16 165.659 10.9098C165.484 10.6595 165.249 10.4546 164.975 10.3123C164.701 10.17 164.396 10.0945 164.086 10.0923L164.09 10.0962Z" fill="#262626"/>
<path d="M60.2225 10.838C60.0243 10.6442 59.7857 10.4949 59.5229 10.4002C59.2602 10.3054 58.9797 10.2676 58.7007 10.2893C58.2098 10.3406 57.7558 10.5687 57.4268 10.9295C57.0978 11.2902 56.9171 11.7579 56.9199 12.2418V24.3019C56.9183 24.8029 57.1193 25.284 57.4788 25.6401C57.8383 25.9961 58.3271 26.198 58.8381 26.2016C59.3591 26.1909 59.8551 25.9805 60.2197 25.6155C60.5842 25.2505 60.7883 24.76 60.7882 24.2492V12.1832C60.7887 11.9335 60.7391 11.6862 60.642 11.4554C60.5449 11.2246 60.4024 11.0148 60.2225 10.838ZM58.8281 3.57101C57.4736 3.57101 56.637 4.41837 56.637 5.71869C56.637 7.01901 57.4697 7.88784 58.8122 7.89174C59.3874 7.88753 59.9386 7.66555 60.3507 7.27221C60.7628 6.87887 61.0037 6.34462 61.0233 5.78117C61.0611 4.4457 60.1867 3.56516 58.8381 3.56516L58.8281 3.57101Z" fill="#262626"/>
<path d="M82.0124 10.0959C79.899 10.0959 78.166 11.158 77.0884 12.9894C75.9231 11.158 74.0845 10.0959 71.6982 10.0959C69.8596 10.0959 68.1267 11.1072 67.5331 12.5149V12.1654C67.5328 11.9055 67.4777 11.6484 67.3711 11.4104C67.2646 11.1723 67.109 10.9585 66.914 10.7822C66.7191 10.606 66.489 10.4712 66.2384 10.3864C65.9877 10.3015 65.7218 10.2684 65.4575 10.2891C64.9687 10.3361 64.5157 10.5611 64.1881 10.9198C63.8606 11.2785 63.6823 11.7446 63.6886 12.226V24.3213C63.6874 24.5791 63.7406 24.8345 63.8446 25.0713C63.9487 25.3082 64.1015 25.5214 64.2936 25.6977C64.4856 25.874 64.7126 26.0095 64.9605 26.0959C65.2084 26.1822 65.4719 26.2175 65.7344 26.1995C66.2278 26.1572 66.6867 25.9337 67.0191 25.5738C67.3515 25.214 67.533 24.7442 67.5271 24.2588V18.2434C67.5271 15.7208 68.9832 13.864 71.015 13.864C73.1563 13.864 74.5327 15.592 74.5327 18.2141V24.3057C74.5323 24.5825 74.5938 24.8561 74.7127 25.1072C74.8316 25.3584 75.0052 25.5809 75.2212 25.7593C75.4372 25.9378 75.6904 26.0677 75.963 26.14C76.2357 26.2123 76.5212 26.2253 76.7995 26.178C77.2557 26.0924 77.6668 25.8523 77.9606 25.4996C78.2545 25.147 78.4125 24.7043 78.407 24.249V18.2082C78.407 15.715 79.8711 13.8582 81.873 13.8582C84.0382 13.8582 85.4186 15.5861 85.4186 18.2082V24.2998C85.4186 24.8003 85.62 25.2805 85.9792 25.6362C86.3384 25.992 86.8263 26.1944 87.3369 26.1995C87.8579 26.1888 88.3538 25.9784 88.7184 25.6134C89.0829 25.2484 89.2871 24.7579 89.287 24.2471V18.2082C89.2929 13.3388 86.4823 10.0959 82.0124 10.0959Z" fill="#262626"/>
<path d="M107.573 10.8319C107.375 10.6407 107.138 10.4933 106.878 10.3996C106.617 10.306 106.339 10.2683 106.063 10.2891C105.575 10.3276 105.122 10.5511 104.8 10.912C104.474 11.2749 104.294 11.7422 104.294 12.226V12.5149C103.617 11.0799 101.533 10.0959 99.4456 10.0959C94.7068 10.0959 91.7029 13.3388 91.7029 18.216C91.6944 19.2 91.8286 20.1801 92.1013 21.1271C93.0674 24.3642 95.7186 26.3616 99.4416 26.3616C99.9741 26.3576 100.504 26.292 101.021 26.1663C102.511 25.8149 103.81 24.9949 104.29 23.962V24.3115C104.289 24.5617 104.34 24.8095 104.439 25.0398C104.534 25.2637 104.674 25.4668 104.85 25.6372C105.118 25.9017 105.46 26.0822 105.832 26.1559C106.205 26.2296 106.592 26.1932 106.944 26.0512C107.295 25.9092 107.596 25.668 107.808 25.3583C108.019 25.0486 108.132 24.6843 108.132 24.3115V12.1654C108.133 11.918 108.084 11.6728 107.988 11.444C107.892 11.2152 107.751 11.0072 107.573 10.8319ZM99.9356 22.568C97.3102 22.568 95.5772 20.8459 95.5772 18.216C95.5772 15.5861 97.3102 13.864 99.9356 13.864C102.479 13.864 104.294 15.6935 104.294 18.2434C104.294 20.7932 102.531 22.568 99.9356 22.568Z" fill="#262626"/>
<path d="M52.7569 22.5177H43.3789L53.9142 7.42926C54.0968 7.16764 54.2385 6.88071 54.3345 6.578C54.43 6.27576 54.4783 5.96113 54.4779 5.64474C54.4782 5.38279 54.4257 5.12337 54.3237 4.88129C54.2216 4.63921 54.0718 4.41922 53.8829 4.23391C53.694 4.04859 53.4698 3.90158 53.2229 3.80128C52.976 3.70098 52.7114 3.64935 52.4442 3.64935H40.142C39.6536 3.66493 39.1905 3.86604 38.8507 4.21017C38.5108 4.5543 38.3208 5.01448 38.3208 5.49343C38.3208 5.97237 38.5108 6.43255 38.8507 6.77668C39.1905 7.12081 39.6536 7.32192 40.142 7.3375H49.3049L38.5942 22.6426C38.255 23.1316 38.0726 23.7089 38.0703 24.3002C38.069 24.5517 38.1186 24.8009 38.2161 25.0335C38.3136 25.2661 38.4571 25.4775 38.6384 25.6554C38.8198 25.8333 39.0352 25.9742 39.2725 26.07C39.5097 26.1658 39.7639 26.2146 40.0204 26.2136H52.7688C53.021 26.2217 53.2723 26.1799 53.5078 26.0909C53.7432 26.0018 53.9579 25.8673 54.1392 25.6952C54.3206 25.5232 54.4648 25.3172 54.5632 25.0894C54.6617 24.8617 54.7124 24.6169 54.7124 24.3695C54.7124 24.1222 54.6617 23.8774 54.5632 23.6496C54.4648 23.4219 54.3206 23.2159 54.1392 23.0438C53.9579 22.8718 53.7432 22.7373 53.5078 22.6482C53.2723 22.5592 53.021 22.5174 52.7688 22.5255L52.7569 22.5177Z" fill="#262626"/>
<path d="M148.611 12.0287V24.3603C148.611 24.8639 148.409 25.3474 148.048 25.7064C147.688 26.0655 147.198 26.2713 146.684 26.2795H146.617C146.103 26.2708 145.614 26.0647 145.254 25.7058C144.894 25.3468 144.692 24.8636 144.692 24.3603V24.0654H144.677C144.153 25.0748 142.868 25.8773 141.394 26.2268C140.868 26.3537 140.328 26.4192 139.786 26.422C139.5 26.422 139.221 26.4103 138.946 26.3869C137.102 26.2216 135.377 25.4245 134.073 24.1357L124.582 14.8363C123.817 14.151 122.763 13.7644 121.512 13.7644C118.965 13.7644 117.13 15.5665 117.078 18.0988V18.3936C117.134 20.9181 118.929 22.6206 121.512 22.6206C122.753 22.6206 123.799 22.2419 124.562 21.5683C124.661 21.4815 124.754 21.3896 124.843 21.293L126.857 19.3171C126.9 19.2767 126.952 19.2478 127.01 19.2332C127.064 19.2209 127.12 19.2221 127.174 19.2368C127.227 19.2515 127.275 19.2791 127.315 19.3171L127.58 19.5788L129.408 21.3691L129.789 21.7381C129.849 21.7978 129.883 21.8785 129.883 21.9627C129.883 22.0468 129.849 22.1276 129.789 22.1872L128.365 23.5988L127.835 24.124L127.337 24.618C127.235 24.7097 127.138 24.7976 127.02 24.8835C125.719 25.9085 124.018 26.4786 122.014 26.4786C121.473 26.4758 120.933 26.4103 120.407 26.2834C118.909 25.9281 117.606 25.1119 117.098 24.0732H117.082V31.0122C117.087 31.2819 117.035 31.5497 116.929 31.7986C116.823 32.0476 116.666 32.2724 116.467 32.4588C116.268 32.6451 116.032 32.7891 115.773 32.8815C115.515 32.974 115.24 33.0129 114.965 32.9959C114.468 32.9599 114.004 32.741 113.665 32.3831C113.326 32.0253 113.138 31.5551 113.138 31.0669V12.0267C113.138 11.5549 113.314 11.0992 113.633 10.7457C113.952 10.3922 114.391 10.1652 114.869 10.1075H115.349C115.827 10.1647 116.268 10.3915 116.587 10.7451C116.906 11.0987 117.082 11.5546 117.082 12.0267V12.3509H117.098C117.803 10.91 119.907 9.92398 122.014 9.92398H122.214C124.279 9.97597 126.246 10.7962 127.717 12.2181L136.707 21.0567C137.61 21.964 138.834 22.4972 140.127 22.5464H140.282C142.362 22.5464 143.932 21.4414 144.491 19.69C144.626 19.262 144.693 18.8162 144.691 18.3682V17.9895C144.696 17.2357 144.496 16.4941 144.111 15.8418C143.356 14.5883 141.993 13.8113 140.326 13.8113C139.075 13.8113 138.021 14.2018 137.257 14.8812L137.245 14.8929C137.207 14.9261 137.171 14.9613 137.135 14.9964C137.099 15.0315 137.063 15.0667 137.03 15.1038L134.956 17.0562C134.926 17.0858 134.89 17.1094 134.851 17.1254C134.812 17.1415 134.769 17.1497 134.727 17.1497C134.684 17.1497 134.642 17.1415 134.603 17.1254C134.563 17.1094 134.528 17.0858 134.498 17.0562L132.107 14.7133C132.047 14.6534 132.014 14.5728 132.014 14.4888C132.014 14.4048 132.047 14.3241 132.107 14.2642L133.936 12.3958L134.466 11.8764C134.52 11.8237 134.573 11.7729 134.631 11.7222C134.689 11.6714 134.743 11.6245 134.803 11.5777L134.95 11.4664C136.233 10.5058 137.886 9.97279 139.822 9.97279C141.886 9.97279 143.944 10.9197 144.692 12.3157V12.0385C144.692 11.5515 144.881 11.0826 145.22 10.7267C145.559 10.3708 146.023 10.1543 146.519 10.1212H146.788C147.281 10.1552 147.743 10.3706 148.081 10.7244C148.419 11.0781 148.608 11.544 148.611 12.0287Z" fill="#298FFE"/>
<path d="M28.3476 27.9354C28.346 28.3892 28.1611 28.8239 27.8334 29.1444C27.5056 29.465 27.0617 29.6452 26.5987 29.6457H5.00816C4.54501 29.6457 4.10075 29.4656 3.77288 29.145C3.44501 28.8244 3.26029 28.3894 3.25923 27.9354C3.25749 27.5691 3.37856 27.2124 3.60384 26.9201L3.6138 26.9104L4.01219 26.3481L20.358 3.42651H5.05596C4.58934 3.42671 4.14104 3.24856 3.80629 2.92992C3.47153 2.61129 3.2767 2.17727 3.26322 1.72009C3.26244 1.49497 3.30692 1.27191 3.39409 1.06363C3.48125 0.855358 3.60938 0.66595 3.77122 0.506224C3.93307 0.346499 4.12545 0.219584 4.33734 0.132725C4.54923 0.0458666 4.77649 0.000767878 5.00616 0H26.4434C26.7475 0.000447993 27.0461 0.0797088 27.309 0.229748C27.5718 0.379787 27.7894 0.595268 27.9399 0.85435C28.0904 1.11343 28.1682 1.4069 28.1657 1.70501C28.1631 2.00311 28.0802 2.29526 27.9254 2.55183L27.8118 2.71778L27.4911 3.1766L11.3186 26.229H26.5948C27.0577 26.2264 27.5028 26.404 27.8322 26.7229C28.1616 27.0417 28.3484 27.4757 28.3516 27.9295L28.3476 27.9354Z" fill="#298FFE"/>
<path d="M9.94216 15.7836L8.06577 18.4643H1.42066C1.23669 18.4712 1.05318 18.4416 0.881148 18.3774C0.709113 18.3131 0.552084 18.2155 0.419444 18.0904C0.286804 17.9652 0.181298 17.8151 0.109226 17.6491C0.0371533 17.483 0 17.3044 0 17.124C0 16.9435 0.0371533 16.7649 0.109226 16.5989C0.181298 16.4328 0.286804 16.2827 0.419444 16.1576C0.552084 16.0325 0.709113 15.9348 0.881148 15.8706C1.05318 15.8063 1.23669 15.7767 1.42066 15.7836H9.94216Z" fill="#298FFE"/>
<path d="M31.2179 17.1246C31.2179 17.4798 31.074 17.8205 30.8177 18.0717C30.5614 18.3228 30.2139 18.464 29.8515 18.464H18.1967L20.0711 15.7833H29.8495C30.2121 15.7833 30.5598 15.9243 30.8164 16.1754C31.073 16.4266 31.2174 16.7672 31.2179 17.1226V17.1246Z" fill="#298FFE"/>
<path d="M13.1651 11.1796L11.2867 13.8623H1.42068C1.05774 13.8623 0.709651 13.721 0.453016 13.4694C0.19638 13.2179 0.0522461 12.8767 0.0522461 12.5209C0.0522461 12.1652 0.19638 11.824 0.453016 11.5725C0.709651 11.3209 1.05774 11.1796 1.42068 11.1796H13.1651Z" fill="#298FFE"/>
<path d="M31.218 12.5229C31.218 12.8781 31.074 13.2188 30.8178 13.47C30.5615 13.7212 30.2139 13.8623 29.8515 13.8623H21.4157L23.3021 11.1796H29.8615C30.2225 11.1832 30.5676 11.3263 30.8216 11.5779C31.0756 11.8294 31.218 12.169 31.218 12.5229Z" fill="#298FFE"/>
</svg>
