<svg width="17" height="17" viewBox="0 0 17 17" fill="none" xmlns="http://www.w3.org/2000/svg">
<path d="M8.50001 0C3.80561 0 0 3.80568 0 8.50001C0 13.1947 3.80568 17 8.50001 17C13.1947 17 17 13.1947 17 8.50001C17 3.80601 13.1947 0.000464844 8.49987 0.000464844L8.49994 6.64063e-05L8.50001 0ZM12.398 12.2595C12.2457 12.5092 11.9189 12.5884 11.6692 12.4351C9.67347 11.2161 7.16119 10.94 4.20246 11.616C4.06545 11.6472 3.92166 11.6227 3.80272 11.5479C3.68377 11.4731 3.59939 11.3541 3.56814 11.2171C3.55257 11.1493 3.55053 11.079 3.56213 11.0104C3.57374 10.9418 3.59876 10.8762 3.63577 10.8172C3.67278 10.7583 3.72105 10.7073 3.77782 10.667C3.83458 10.6268 3.89873 10.5981 3.96658 10.5827C7.20455 9.84294 9.98186 10.1614 12.2224 11.5307C12.4721 11.684 12.5513 12.0098 12.398 12.2595ZM13.4384 9.94507C13.2465 10.2569 12.8385 10.3553 12.5269 10.1635C10.2421 8.75912 6.7593 8.35239 4.05689 9.1727C3.7064 9.27855 3.33625 9.08106 3.22987 8.73117C3.12428 8.38067 3.32191 8.01119 3.6718 7.90467C6.7587 6.96795 10.5963 7.4217 13.2202 9.03405C13.5317 9.22596 13.6302 9.63396 13.4384 9.94514V9.94507ZM13.5277 7.53499C10.7882 5.90777 6.26836 5.75809 3.65281 6.55204C3.23279 6.67941 2.7886 6.44227 2.66137 6.02225C2.53406 5.60204 2.77094 5.15818 3.19129 5.03048C6.19372 4.11898 11.1851 4.29516 14.339 6.16755C14.7177 6.39174 14.8415 6.87969 14.6172 7.25695C14.3939 7.6348 13.9046 7.75931 13.5281 7.53499H13.5277Z" fill="#1ED760"/>
</svg>
