<svg width="70" height="48" viewBox="0 0 70 48" fill="none" xmlns="http://www.w3.org/2000/svg">
<path opacity="0.2" d="M0.160752 17.3517C0.399926 20.4447 0.555373 23.5377 0.555373 26.6307C0.555373 27.1874 0.555373 27.7441 0.555373 28.3163C0.555373 28.3163 0.615166 29.8628 0.555373 31.2392C0.495579 32.6156 0.555373 34.1466 0.555373 34.0229C0.457766 34.8221 0.457766 35.6362 0.555373 36.4355C0.615166 36.5592 0.722806 36.4355 0.86631 36.1571C0.868489 36.1262 0.868489 36.0951 0.86631 36.0643C1.39756 36.2605 1.94219 36.39 2.49267 36.4509C4.26256 36.7911 6.78584 37.0076 6.78584 37.0076L44.4796 37.1159H47.2421C47.2857 37.1244 47.33 37.1244 47.3736 37.1159C47.4573 37.0231 47.5052 36.9303 47.565 36.853C47.6247 36.7757 47.565 37.1314 47.565 37.3015C47.565 38.0902 47.565 39.1109 47.565 40.147C47.565 41.1832 47.4573 42.2348 47.3976 43.039C47.3378 43.8432 47.2899 44.369 47.2899 44.369C47.2899 44.369 47.2899 45.0185 47.3497 45.6835C47.3476 46.094 47.3797 46.5036 47.4454 46.9052C47.6008 47.9878 47.9357 48.6528 48.3662 47.0135C48.6532 46.0546 48.9283 44.6937 48.9283 44.6937C48.9283 44.6937 48.9283 44.1989 49.0359 43.4411C49.287 43.24 49.6338 42.9153 50.1002 42.4513C51.5472 41.1059 53.5204 39.08 53.5204 39.08L54.7163 37.75C56.5459 35.6313 58.3876 33.5126 60.2053 31.3475C61.1142 30.2649 62.0111 29.1515 62.896 28.0225C63.3504 27.4658 63.7809 26.8936 64.2115 26.3214C64.4148 26.043 64.6539 25.7492 64.8811 25.4244L65.491 24.481C66.0381 23.5967 66.6251 22.755 67.2489 21.9602C67.2576 21.9145 67.2576 21.8668 67.2489 21.8211C67.8588 22.3314 68.3133 22.7026 68.2654 22.6407C68.6242 22.9191 68.959 23.1665 69.2461 23.3521H69.0427C68.9962 23.332 68.9458 23.332 68.8992 23.3521C68.4948 23.7628 68.1187 24.2182 67.7751 24.713L67.536 25.0223C67.4659 25.1225 67.3899 25.2156 67.3088 25.3007L66.8065 25.8729C64.4147 28.6411 61.8915 31.332 59.3801 34.0075L55.6251 38.0438L53.7476 40.0852L52.4202 41.6317C52.4202 41.6317 51.5711 42.6833 50.7699 43.7349C49.9686 44.7865 49.1913 45.8536 49.275 45.7763C48.0792 47.6166 47.4095 49.0085 49.8491 46.7042C51.32 45.3897 53.341 43.4411 53.341 43.4411L54.5369 42.0338L56.4263 39.9769L60.2531 35.8787C62.8123 33.1414 65.3595 30.4196 67.8708 27.5431L68.385 26.94L68.672 26.5997L68.9112 26.275C69.1809 25.8811 69.4771 25.5188 69.7961 25.1924C69.7993 25.1513 69.7993 25.1098 69.7961 25.0687C69.7961 24.4965 69.9038 24.0635 69.7961 23.7387C69.7961 23.7387 69.7962 23.7387 69.7364 23.7387C70.2147 23.9088 70.119 23.4603 68.8036 21.8365C67.4881 20.2127 65.6704 18.0012 65.6704 18.0012L64.4745 16.7795C62.322 14.5731 60.1933 12.3256 58.0886 10.0368C57.0482 8.89236 56.0078 7.73249 54.9794 6.55715L51.9777 2.7837C51.302 2.08119 50.6665 1.31624 50.0763 0.494878C50.0329 0.482746 49.9881 0.482746 49.9447 0.494878C49.7519 0.453609 49.554 0.497176 49.3827 0.618601C49.3886 0.515645 49.3886 0.412262 49.3827 0.309306C49.3715 0.199869 49.343 0.0945769 49.299 0C49.2085 0.22167 49.1045 0.433697 48.988 0.634069C48.8558 0.553861 48.7145 0.501648 48.5695 0.479422C48.1748 0.371167 47.9955 0.185582 47.8759 0.231977C47.7563 0.278372 47.8759 0.231977 47.8759 0.231977C47.855 0.781084 47.8111 1.32832 47.7443 1.87126C47.6965 2.48986 47.6606 3.10846 47.6367 3.72706V4.33019C47.6367 4.91786 47.6367 5.50553 47.6367 6.07773C47.6367 6.07773 47.7085 7.62423 47.7922 9.06247C47.8759 10.5007 47.9357 11.9544 47.9476 11.8307V11.939H45.1732L6.90543 11.8462C6.90543 11.8462 2.24153 12.1864 2.44483 12.2328C1.24896 12.4029 0.340127 12.6503 0.603218 12.9287C0.342003 13.0628 0.131671 13.3236 0.0172173 13.6556C0.00810361 13.7012 0.00810361 13.7491 0.0172173 13.7947C-0.0425761 15.001 0.0650827 16.1763 0.160752 17.3517ZM3.91576 13.9339C3.91576 13.8566 3.85596 13.7948 3.83204 13.7329H4.07123L3.91576 13.9339ZM8.84273 14.104H9.70376L8.50789 15.5114C7.80233 16.2537 7.0848 17.0579 6.36728 17.6919L5.31494 18.7126L3.54504 20.6303L2.1698 22.1768C2.1698 21.8675 2.1698 21.5582 2.1698 21.2489C2.86341 20.8777 3.58092 20.3828 3.58092 20.3828C3.58092 20.3828 4.98008 19.0528 6.34337 17.5682C7.01306 16.8259 7.67077 16.0217 8.16108 15.4031C8.65138 14.7845 8.95037 14.3206 8.96233 14.3051C8.97577 14.2786 8.98323 14.2477 8.98382 14.216C8.98441 14.1842 8.97812 14.153 8.96568 14.1256C8.95324 14.0983 8.93515 14.0759 8.91342 14.0612C8.8917 14.0465 8.8672 14.0399 8.84273 14.0422V14.104ZM2.20568 26.1976C2.20568 25.3161 2.20568 24.4346 2.20568 23.5686L2.40895 23.4139C3.97554 22.3005 6.11615 20.5375 6.11615 20.5375L7.31202 19.3312C8.0415 18.6043 8.78296 17.7847 9.50048 17.1043C10.218 16.4238 10.9236 15.5578 11.6172 14.7072C11.6257 14.6458 11.6257 14.583 11.6172 14.5216C11.6347 14.3626 11.6347 14.2012 11.6172 14.0422H13.0163C12.5619 14.5835 12.1194 15.1093 11.653 15.5887C10.0386 17.3981 8.36439 19.1302 6.67821 20.8622L5.64978 21.9293L3.92773 23.9398C3.09062 24.945 2.27743 25.9347 2.36115 25.8729L2.20568 26.1976ZM1.75124 16.5939C1.75124 16.4083 1.75124 16.2227 1.75124 16.0217C1.91058 16.0006 2.06727 15.9538 2.21765 15.8825L2.09805 16.0217L1.75124 16.5939ZM1.42837 34.2704C1.68537 33.0717 1.88111 31.8525 2.01433 30.6206C2.13392 29.5071 2.19371 28.672 2.19371 28.672V27.4812C2.40896 27.3266 2.6601 27.1255 2.94711 26.8781C4.46586 25.6718 6.53471 23.7851 6.53471 23.7851L7.73058 22.5479C9.42872 20.8158 11.1149 19.0528 12.7652 17.228C13.4668 16.4341 14.1604 15.6299 14.846 14.8154C14.8545 14.7541 14.8545 14.6912 14.846 14.6299C14.864 14.4295 14.864 14.2271 14.846 14.0267H16.5083C16.1375 14.4443 15.7788 14.8618 15.42 15.2485C13.0283 17.9084 10.5289 20.4756 8.06542 23.1047L7.04893 24.2027L5.37472 26.275C4.54957 27.3111 3.77227 28.3473 3.85598 28.2854C2.58836 30.0948 1.96651 31.4867 4.41804 29.2288C5.90092 27.9452 7.94583 26.0275 7.94583 26.0275L9.1417 24.7594C11.5334 22.1458 14.0687 19.5632 16.4963 16.8877C17.2138 16.099 17.8955 15.3412 18.5651 14.6453C18.5729 14.5943 18.5729 14.5417 18.5651 14.4907C18.5758 14.3363 18.5758 14.1811 18.5651 14.0267H20.0241L19.6893 14.4907C19.4023 14.9082 19.0794 15.3103 18.7685 15.7279C16.9962 17.8714 15.1359 19.89 13.1957 21.7747C12.6934 22.2695 12.1912 22.7799 11.7128 23.3212L10.2419 24.8677C9.2613 25.8883 8.30459 26.94 7.3479 27.9606L6.34337 29.0741L4.69307 31.1928C3.89184 32.2444 3.11452 33.2806 3.19823 33.2187C2.42092 34.3167 1.88278 35.2756 2.15783 35.322C1.80255 35.3684 1.45065 35.4512 1.10546 35.5694C1.23628 35.1451 1.34808 34.7113 1.4403 34.2704H1.42837ZM2.27743 35.3065C2.80784 35.0094 3.30626 34.6247 3.76029 34.1621C5.24317 32.8785 7.25224 30.899 7.25224 30.899L8.44811 29.5999C9.39285 28.5638 10.3495 27.5276 11.3062 26.5069L12.7771 24.9604C13.2555 24.4501 13.7338 23.9707 14.2361 23.4139C16.2808 21.4947 18.241 19.4295 20.1078 17.228C20.4307 16.7949 20.7775 16.3619 21.1004 15.9134C21.371 15.4969 21.6669 15.109 21.9853 14.7536C21.9945 14.7027 21.9945 14.6498 21.9853 14.5989C21.9961 14.3981 21.9961 14.1966 21.9853 13.9958H23.815L22.6192 15.3876C18.8641 19.8415 14.9177 24.0635 11.1149 28.5483L10.1343 29.7082C10.1343 29.7082 9.32108 30.8062 8.54376 31.9042C7.76645 33.0022 7.12069 34.1466 7.2044 34.1466L6.73803 34.9199C5.67371 35.0127 2.45682 35.2601 2.62424 35.291L2.27743 35.3065ZM44.1328 14.135L43.2239 15.4495L35.3073 27.1565L34.4224 28.4246L32.9873 30.7443C32.2818 31.8888 31.5762 33.0022 31.6479 32.9249C31.2555 33.5289 30.9295 34.2003 30.6793 34.9199H26.0752C26.4938 34.5975 26.8935 34.2357 27.2711 33.8373C28.7061 32.461 30.6673 30.4041 30.6673 30.4041L31.7914 29.0432C33.3939 27.1101 35.0203 25.1615 36.5749 23.1356C37.3642 22.1304 38.1415 21.1097 38.9667 20.0426C39.7918 18.9755 40.4495 17.8156 41.1431 16.7176C41.8368 15.6196 42.2553 14.9237 42.8413 14.104L44.1328 14.135ZM39.7559 15.3876C39.0623 16.5011 38.4046 17.5837 37.6632 18.5889C36.9217 19.5941 36.1564 20.6148 35.391 21.6819C33.8364 23.6614 32.2339 25.5945 30.6075 27.5431L29.6508 28.703L28.0603 30.8371C27.283 31.9197 26.5416 33.0177 26.6253 32.9404C26.2308 33.5338 25.9082 34.2012 25.6686 34.9199H22.7627C23.1804 34.6071 23.58 34.2556 23.9585 33.8683C25.3936 32.4919 27.3189 30.3423 27.3189 30.3423L28.4072 28.9504C31.337 25.2388 34.1832 21.5427 37.149 17.8466C37.8401 16.9735 38.4685 16.021 39.0265 15.001C39.0371 14.9347 39.0371 14.8663 39.0265 14.8C39.0158 14.5695 38.9712 14.3438 38.8949 14.135H40.617C40.2702 14.5371 40.019 14.9701 39.744 15.3876H39.7559ZM35.8813 16.331C32.9754 19.9498 30.0694 23.7232 27.1754 27.4039L26.2307 28.5947C26.2307 28.5947 23.1094 33.0796 23.2769 32.9404C22.8607 33.5256 22.5141 34.1875 22.2484 34.9044H19.3903L19.5338 34.7498C20.9449 33.3579 22.8942 31.2856 22.8942 31.2856L24.0183 29.9247C27.3904 26.0444 30.5847 21.9135 33.5853 17.5527C34.1832 16.6248 34.7811 15.6969 35.3432 14.7226C35.3539 14.6616 35.3539 14.5981 35.3432 14.5371C35.3562 14.3984 35.3562 14.2582 35.3432 14.1195H37.424C36.9431 14.8991 36.4238 15.6378 35.8694 16.331H35.8813ZM32.2937 16.1454C29.3492 20.4535 26.2105 24.533 22.8942 28.3627L21.9255 29.5381L20.3589 31.7341C19.5816 32.8321 18.8521 33.9456 18.9239 33.8683C18.6967 34.2394 18.4934 34.5797 18.3379 34.889H15.5396C16.9149 33.6208 18.4336 32.0589 18.4336 32.0589L19.5577 30.7134C21.4153 28.5174 23.253 26.2904 25.0707 24.0325L27.7853 20.6148C28.6916 19.428 29.5384 18.1676 30.3206 16.8413C30.8946 15.9134 31.4566 15.0165 32.0545 14.1814H33.5494C33.1308 14.8 32.7123 15.4804 32.2698 16.1454H32.2937ZM28.9931 15.5887C28.2559 16.8446 27.457 18.0378 26.6014 19.1611L23.9107 22.5634C22.1089 24.8006 20.2832 27.0173 18.4336 29.2133L17.453 30.3732C17.453 30.3732 14.2122 34.6879 14.3796 34.5487L14.1045 34.9663H10.7203C10.9714 34.7807 11.2823 34.5178 11.6889 34.1621C13.1837 32.8785 15.2167 30.9299 15.2167 30.9299L16.4126 29.6463C20.1915 25.4708 24.0303 21.3107 27.6418 16.8104C28.3115 15.9753 28.9692 15.1402 29.615 14.2896V14.1814H29.8781C29.5791 14.568 29.2562 15.0319 28.9931 15.5887ZM26.4579 15.2485C22.8703 19.6869 19.0913 23.816 15.3004 27.9916L14.2959 29.1051L12.6337 31.0536C11.8205 32.0898 11.0312 33.1259 11.1149 33.0641C10.709 33.5913 10.3518 34.1778 10.0506 34.8116H7.94583C9.345 33.4198 11.1867 31.4867 11.1867 31.4867L12.3107 30.1567C16.0777 25.7182 20.0241 21.4808 23.827 16.9805C24.5086 16.1764 25.1903 15.434 25.86 14.5371C25.8685 14.4757 25.8685 14.4129 25.86 14.3515C25.8654 14.2433 25.8654 14.1349 25.86 14.0267H27.2472L26.4579 15.2485ZM47.4215 35.09C47.3869 35.0719 47.3484 35.0719 47.3138 35.09H45.8788C45.9984 34.9663 46.106 34.8271 46.2376 34.6724C47.5769 33.1259 49.3229 30.7289 49.3229 30.7289L50.2915 29.1824C53.0301 24.8367 55.7208 20.4601 58.5191 16.2382L59.715 14.3979L60.5282 15.2639C59.9433 16.0786 59.415 16.9583 58.9496 17.893L58.5909 18.5734C58.4832 18.759 58.3517 18.96 58.1962 19.192L57.3471 20.4911L55.6251 23.0892C54.4531 24.8213 53.2772 26.5379 52.0973 28.239L51.2243 29.5071L49.7773 31.8269C49.0598 32.9868 48.3662 34.1157 48.438 34.0384C48.127 34.5951 47.852 35.1055 47.6726 35.4921C47.6066 35.3179 47.5221 35.1565 47.4215 35.0127V35.09ZM63.0754 17.8156L62.7405 18.2487C62.3937 18.7126 62.0828 19.192 61.7838 19.6714C61.0902 20.7849 60.5042 21.8829 59.8106 22.7644C59.117 23.6459 58.3517 24.7749 57.6102 25.7646C56.1393 27.7287 54.6086 29.6618 53.1018 31.6258L52.1691 32.8321L50.6503 35.1209C50.0404 36.0488 49.4544 36.9767 49.3349 37.2396C49.3407 37.2039 49.3407 37.1671 49.3349 37.1314C49.3349 36.2808 49.2392 35.6931 49.2392 35.5849H49.1674C48.9664 35.4783 48.7508 35.4257 48.5336 35.4302L49.1435 34.7807C50.5307 33.327 52.3604 31.0536 52.3604 31.0536L53.3888 29.5071C54.5847 27.7905 55.7806 26.0739 56.9764 24.3264L58.6626 21.7747L59.5356 20.4447C59.6672 20.2282 59.8226 19.9962 59.9781 19.7178L60.3727 18.991C60.8071 18.1048 61.3077 17.276 61.8675 16.5166L63.0754 17.8156ZM66.0053 20.6303C65.3988 21.4116 64.8277 22.2378 64.2951 23.1047L63.7092 23.9862C63.5178 24.2645 63.3145 24.512 63.0993 24.8058C62.6688 25.378 62.2383 25.9502 61.8078 26.4915C60.9348 27.605 60.0498 28.6875 59.1529 29.77C57.3591 31.9197 55.5055 34.0229 53.6759 36.1571L52.6952 37.3015L51.0808 39.4666C50.5666 40.129 50.0796 40.8259 49.6218 41.5543L49.2392 42.1575C49.2392 41.5853 49.3229 40.9512 49.3468 40.3017C49.3707 39.6522 49.3468 39.3274 49.3468 38.8634L49.9088 38.2294C51.2841 36.6829 53.1736 34.5951 53.1736 34.5951L54.2499 33.1878C55.7566 31.2392 57.2754 29.2906 58.7822 27.3111C59.5236 26.3059 60.289 25.2852 60.9946 24.2181C61.162 23.9707 61.3773 23.7078 61.5566 23.4139C61.736 23.1201 61.9154 22.8418 62.0828 22.5634L63.0634 21.0169C63.4516 20.3512 63.8881 19.7349 64.3669 19.1766L64.618 19.424L66.0053 20.6303ZM58.4713 12.9751L57.2754 14.7845C54.4532 19.0528 51.7505 23.4449 49.0239 27.7905L48.1988 29.1051L46.8474 31.5176C46.1777 32.7239 45.52 33.8837 45.5918 33.8064C45.3759 34.205 45.1763 34.618 44.9938 35.0436H41.8846C42.36 34.6477 42.7975 34.1805 43.1881 33.6518C44.5155 32.1053 46.2973 29.801 46.2973 29.801L47.3138 28.2545C50.3394 23.816 53.4367 19.3621 56.247 14.6299C56.7612 13.7793 57.2156 12.9287 57.6701 12.0472L57.9332 12.341L58.4713 12.9751ZM54.5129 8.61398L52.7431 11.4131C49.6338 16.3001 46.668 21.1561 43.5588 25.9193L42.7097 27.2029L41.2747 29.5071C40.5811 30.667 39.8875 31.796 39.9592 31.7186C38.8471 33.6363 38.2731 35.1209 40.5931 32.5847C42.0042 31.1155 43.798 28.7803 43.798 28.7803L44.8025 27.2338C47.9237 22.4551 50.9373 17.5218 53.9629 12.7741L55.6729 10.0368C55.6837 9.97569 55.6837 9.91226 55.6729 9.85118L56.3307 10.5935C55.8763 11.4905 55.386 12.4184 54.8717 13.2535C52.0973 17.893 49.0478 22.3314 46.0103 26.7853L45.1373 28.0689C45.1373 28.0689 44.4318 29.2752 43.7262 30.4505C43.0207 31.6258 42.3749 32.8012 42.4586 32.7239C42.044 33.3678 41.7457 34.1233 41.5856 34.9353H35.3551C36.6467 33.3889 38.3209 31.3475 38.3209 31.3475L45.0536 21.9757C46.2495 20.2127 47.5171 18.4497 48.701 16.6248C49.299 15.6969 49.8969 14.769 50.435 13.8102C50.734 13.3463 50.9971 12.8514 51.2722 12.3565L51.4754 12.0008L51.5352 11.8771L51.607 11.7379L51.6907 11.5369L52.0375 10.7791C52.5039 9.78932 52.9822 8.75317 53.4725 7.8562C53.4785 7.79975 53.4785 7.74253 53.4725 7.68609C53.462 7.55509 53.4419 7.42565 53.4128 7.29946L54.3814 8.41294L54.5129 8.61398ZM48.701 12.0627C48.7608 11.5987 48.8087 11.0884 48.8565 10.5162C49.2605 10.2091 49.6374 9.84614 49.9806 9.43362L50.3992 8.61398L51.2961 6.80458L51.9179 5.58285L52.6115 6.38704C52.4803 6.40605 52.3516 6.44765 52.2288 6.51075C52.1857 6.52458 52.1477 6.55739 52.1212 6.60354C51.5472 7.65516 51.0808 8.67585 50.6025 9.69654L50.2557 10.4543L50.1719 10.6399C50.1719 10.7482 50.1719 10.6399 50.1719 10.7482L49.9806 11.0884C49.7175 11.5523 49.4664 12.0163 49.1914 12.4648C48.9163 12.9132 48.7249 13.2225 48.4858 13.6092C48.5855 13.0747 48.6575 12.5322 48.701 11.9853V12.0627ZM50.6623 4.20647C50.435 4.63949 50.1719 5.1653 49.9208 5.75297L49.0718 7.45411C49.0718 6.89737 49.0718 6.55715 49.0718 6.55715C49.0718 5.90762 49.0718 5.25809 49.0718 4.60856V4.02089C49.0718 3.54147 49.0718 3.07753 49.1555 2.61358C49.7056 3.0466 50.1719 3.58787 50.6623 4.12914V4.20647ZM47.8998 14.0422L47.9715 13.9339C47.9911 14.0306 48.0192 14.124 48.0553 14.2123L47.4932 15.1402C46.2973 16.9032 45.1613 18.6198 43.9056 20.3364L37.1968 29.6154C37.1968 29.6154 36.4553 30.7907 35.7498 31.9661C35.0442 33.1414 34.3865 34.3322 34.4582 34.2394L34.1593 34.858H31.062C31.4803 34.5237 31.88 34.1516 32.2579 33.7445C33.669 32.2908 35.4867 30.002 35.4867 30.002L36.5151 28.4555L44.4438 16.7486L46.2734 14.104C46.2734 14.104 46.2734 14.1041 46.2734 14.0113H47.7324C47.7861 14.0354 47.843 14.0459 47.8998 14.0422ZM6.70215 14.0422C6.2836 14.5835 5.74545 15.2175 5.19535 15.8361C3.91577 17.228 2.55249 18.5425 2.55249 18.5425L1.96649 19.3003C1.96649 18.9446 1.90669 18.5889 1.88277 18.2177H2.05021C2.42369 18.1049 2.78512 17.9335 3.12648 17.7074L4.56154 16.1609C4.9203 15.7588 5.27906 15.3722 5.56606 15.0938L6.0444 14.6299C6.0444 14.6299 6.0444 14.6299 6.0444 14.5371C6.0444 14.4443 5.93677 14.2278 5.88894 14.0886H6.53471L6.70215 14.0422ZM1.85886 13.4236L1.51205 13.8257C1.51205 13.7329 1.51205 13.6556 1.51205 13.5628C1.48998 13.5063 1.46182 13.4543 1.42837 13.4081L1.33268 13.3153C1.50679 13.3574 1.6824 13.3884 1.85886 13.4081V13.4236Z" fill="white"/>
</svg>
