<svg width="214" height="214" viewBox="0 0 214 214" fill="none" xmlns="http://www.w3.org/2000/svg">
<path d="M213.495 106.996C213.495 79.4572 202.827 52.9885 183.73 33.1459L160.71 55.301C174.077 69.1909 181.545 87.7189 181.545 106.996H213.495Z" fill="#586DFF" stroke="white"/>
<path d="M183.735 33.1494C170.106 18.9887 152.825 8.87529 133.805 3.92861C114.784 -1.01806 94.7654 -0.605033 75.9649 5.12199L85.2752 35.6854C98.4355 31.6765 112.448 31.3873 125.763 34.85C139.077 38.3127 151.174 45.3921 160.714 55.3046L183.735 33.1494Z" fill="#FF895D" stroke="white"/>
<path d="M75.9658 5.11728C53.6846 11.9046 34.2429 25.8093 20.6189 44.7013C6.99488 63.5932 -0.0600922 86.4307 0.534755 109.715C1.1296 133 9.34144 155.447 23.9123 173.619C38.4832 191.79 58.6096 204.684 81.2083 210.325L88.9458 179.326C73.1267 175.378 59.0382 166.352 48.8386 153.632C38.639 140.911 32.8907 125.198 32.4744 108.899C32.058 92.6001 36.9964 76.6138 46.5332 63.3895C56.07 50.1651 69.6792 40.4318 85.2761 35.6807L75.9658 5.11728Z" fill="#AB72FE" stroke="white"/>
<path d="M81.207 210.33C96.9066 214.248 113.293 214.538 129.121 211.177C144.949 207.816 159.803 200.892 172.556 190.932C185.308 180.971 195.623 168.236 202.717 153.693C209.812 139.15 213.499 123.181 213.499 107H181.549C181.549 118.327 178.968 129.505 174.002 139.685C169.036 149.865 161.815 158.78 152.889 165.752C143.962 172.725 133.564 177.571 122.484 179.924C111.404 182.277 99.9342 182.074 88.9445 179.331L81.207 210.33Z" fill="#3AE5B2" stroke="white"/>
</svg>
