<svg width="24" height="24" viewBox="0 0 24 24" fill="none" xmlns="http://www.w3.org/2000/svg">
<path fill-rule="evenodd" clip-rule="evenodd" d="M20.7381 7.56191L20.1082 6.4381C19.5753 5.48718 18.3944 5.15914 17.4682 5.70476V5.70476C17.0274 5.97178 16.5013 6.04753 16.0061 5.91532C15.5109 5.78311 15.0871 5.4538 14.8283 5C14.6618 4.71156 14.5723 4.38302 14.5689 4.04762V4.04762C14.584 3.50988 14.3866 2.98879 14.0219 2.60305C13.6572 2.21731 13.1562 1.99978 12.633 2H11.3639C10.8513 1.99999 10.3599 2.21001 9.99828 2.58357C9.63668 2.95713 9.43478 3.46345 9.43725 3.99048V3.99048C9.42205 5.07861 8.55973 5.95249 7.50129 5.95238C7.17507 5.9489 6.85553 5.85691 6.57499 5.68571V5.68571C5.64885 5.14009 4.46792 5.46813 3.93504 6.41905L3.25885 7.56191C2.72661 8.51163 3.04132 9.72505 3.96283 10.2762V10.2762C4.56183 10.6318 4.93082 11.2889 4.93082 12C4.93082 12.7111 4.56183 13.3682 3.96283 13.7238V13.7238C3.0425 14.2712 2.72744 15.4817 3.25885 16.4286V16.4286L3.89799 17.5619C4.14767 18.0251 4.56658 18.3669 5.06204 18.5117C5.55749 18.6565 6.08864 18.5923 6.53794 18.3333V18.3333C6.97962 18.0683 7.50596 17.9957 7.99996 18.1317C8.49396 18.2676 8.91469 18.6008 9.16862 19.0571C9.33512 19.3456 9.42459 19.6741 9.42798 20.0095V20.0095C9.42798 21.1088 10.2947 22 11.3639 22H12.633C13.6986 22 14.5638 21.1146 14.5689 20.019V20.019C14.5665 19.4904 14.7696 18.9826 15.1332 18.6088C15.4968 18.2349 15.9907 18.026 16.5049 18.0286C16.8303 18.0375 17.1485 18.1291 17.4312 18.2952V18.2952C18.3549 18.8425 19.5351 18.5189 20.0711 17.5714V17.5714L20.7381 16.4286C20.9962 15.973 21.0671 15.4304 20.9349 14.9209C20.8028 14.4115 20.4786 13.9772 20.0341 13.7143V13.7143C19.5896 13.4514 19.2654 13.0171 19.1332 12.5076C19.0011 11.9982 19.0719 11.4556 19.3301 11C19.498 10.6987 19.741 10.4488 20.0341 10.2762V10.2762C20.9501 9.72535 21.264 8.51902 20.7381 7.57143V7.57143V7.56191Z" stroke="#606060" stroke-width="1.5" stroke-linecap="round" stroke-linejoin="round"/>
<ellipse cx="12.0034" cy="11.9998" rx="2.66773" ry="2.74286" stroke="#606060" stroke-width="1.5" stroke-linecap="round" stroke-linejoin="round"/>
</svg>
