<svg width="22" height="22" viewBox="0 0 22 22" fill="none" xmlns="http://www.w3.org/2000/svg">
<path d="M11 22C8.82441 22 6.69767 21.3549 4.88873 20.1462C3.07979 18.9375 1.66989 17.2195 0.83733 15.2095C0.00476615 13.1995 -0.213071 10.9878 0.211367 8.85401C0.635804 6.72022 1.68345 4.76021 3.22183 3.22183C4.76021 1.68345 6.72022 0.635803 8.85401 0.211367C10.9878 -0.213072 13.1995 0.00476646 15.2095 0.83733C17.2195 1.66989 18.9375 3.07979 20.1462 4.88873C21.3549 6.69767 22 8.82441 22 11C21.9968 13.9164 20.8369 16.7125 18.7747 18.7747C16.7125 20.8369 13.9164 21.9968 11 22V22ZM13.9535 15.5833H8.0465C8.82454 17.1194 9.81919 18.5358 11 19.789C12.1812 18.5361 13.1759 17.1197 13.9535 15.5833ZM14.6868 13.75C14.9686 12.8602 15.1156 11.9333 15.1232 11C15.1156 10.0667 14.9686 9.13979 14.6868 8.25H7.31134C7.0296 9.13979 6.88253 10.0667 6.875 11C6.88253 11.9333 7.0296 12.8602 7.31134 13.75H14.6868ZM8.61667 19.8403C7.56036 18.548 6.68854 17.1154 6.02617 15.5833H3.07359C4.28895 17.6766 6.28069 19.2062 8.61667 19.8403ZM1.83334 11C1.83325 11.9328 1.97576 12.8602 2.25592 13.75H5.40834C5.1707 12.8525 5.0475 11.9285 5.04167 11C5.0475 10.0715 5.1707 9.14755 5.40834 8.25H2.25592C1.97576 9.13978 1.83325 10.0672 1.83334 11ZM3.07359 6.41667H6.02617C6.68854 4.88464 7.56036 3.45197 8.61667 2.15967C6.28069 2.79378 4.28895 4.3234 3.07359 6.41667ZM8.0465 6.41667H13.9535C13.1755 4.88059 12.1808 3.46423 11 2.211C9.81876 3.46388 8.82406 4.8803 8.0465 6.41667ZM13.3879 2.15967C14.4426 3.45225 15.3129 4.8849 15.9738 6.41667H18.9264C17.7121 4.32435 15.7222 2.79485 13.3879 2.15967ZM20.1667 11C20.1668 10.0672 20.0242 9.13978 19.7441 8.25H16.5917C16.8293 9.14755 16.9525 10.0715 16.9583 11C16.9525 11.9285 16.8293 12.8525 16.5917 13.75H19.7423C20.023 12.8603 20.1662 11.9329 20.1667 11ZM15.9738 15.5833C15.3129 17.1151 14.4426 18.5478 13.3879 19.8403C15.7222 19.2052 17.7121 17.6757 18.9264 15.5833H15.9738Z" fill="#262626"/>
</svg>
