<svg width="143" height="146" viewBox="0 0 143 146" fill="none" xmlns="http://www.w3.org/2000/svg">
<g opacity="0.3">
<path d="M1.1667 7.14171C1.51483 7.66436 1.95576 8.20712 2.3735 8.74988L2.97694 9.51375L3.1858 9.79518C3.19298 9.86204 3.19298 9.92935 3.1858 9.99621C3.33286 10.4795 3.44906 10.9693 3.53391 11.4636C3.83097 13.6918 3.92412 15.9369 3.81243 18.1777C3.71202 20.7053 3.78175 23.2357 4.02129 25.7562L4.32297 27.6458L4.62469 29.4349L5.29775 33.0532C6.2227 37.8876 7.46242 42.6728 9.01102 47.386C10.714 52.1234 12.8883 56.7239 15.5093 61.1358C16.809 63.347 18.2015 65.4979 19.6868 67.6087C20.4294 68.654 21.2185 69.6188 22.0076 70.7244L22.6806 71.5688C23.5161 72.6342 24.398 73.6795 25.2799 74.7047L25.8137 75.2675L27.299 76.7149C28.8013 78.1725 30.4057 79.5488 32.1031 80.8358C34.3076 82.5784 36.6327 84.203 39.0655 85.7005C40.9969 87.0145 43.1096 88.1152 45.3549 88.9771C44.5456 89.3329 43.8516 89.858 43.3359 90.5049C43.2788 90.5505 43.2345 90.6068 43.2063 90.6695C43.1782 90.7322 43.1669 90.7996 43.1734 90.8667C43.1734 92.3341 43.1734 93.9624 43.1734 95.651C43.1734 96.5154 43.1734 97.3998 43.1734 98.3044C43.1734 98.7668 43.1734 99.2292 43.3359 99.7719C43.4983 100.315 43.5447 100.717 43.6375 101.139C44.1683 103.435 44.9453 105.682 45.9583 107.853C46.4921 108.938 47.0724 110.004 47.7222 111.049C48.0471 111.572 48.3952 112.074 48.7433 112.577L49.7645 114.004C50.716 115.371 51.83 116.738 52.9208 118.025C55.0091 120.198 57.2409 122.265 59.6047 124.216C61.7423 126.067 64.0731 127.743 66.5672 129.221C68.6514 130.715 71.1749 131.675 73.8545 131.995C74.0547 132.064 74.2662 132.105 74.4811 132.116C74.804 132.102 75.1193 132.027 75.4042 131.895C75.6892 131.763 75.9367 131.577 76.1289 131.352C76.5384 130.916 76.8529 130.419 77.0572 129.885C77.1333 129.724 77.1333 129.543 77.0572 129.382C76.8716 128.397 76.6395 127.553 76.4538 126.849C76.4538 126.488 76.2913 126.146 76.2681 126.005C76.2449 125.864 76.2681 125.322 76.2681 124.98C76.2348 123.47 76.3046 121.96 76.477 120.457C76.6395 118.849 76.9412 117.2 77.1269 115.451C77.3346 113.87 77.6445 112.299 78.0552 110.748V110.506L79.0299 111.15C79.4709 111.431 79.9118 111.692 80.3992 111.954L80.8169 112.175C81.0258 112.295 81.2347 112.376 81.4436 112.476C81.6524 112.577 82.279 112.878 82.6968 113.019L83.9964 113.522C84.4142 113.642 84.8784 114.004 85.2497 113.522L86.4333 112.818L87.5009 112.175L88.0115 111.893L88.2668 111.753L88.8005 111.471L89.9145 110.908L92.2353 109.803L94.7882 108.416C96.7419 107.329 98.5893 106.106 100.312 104.757C102.588 102.953 104.621 100.929 106.369 98.7266C108.017 96.9649 109.183 94.9033 109.781 92.696C110.157 92.6177 110.506 92.459 110.794 92.2343C111.081 92.0096 111.3 91.726 111.428 91.4095C111.912 90.6727 112.249 89.8709 112.426 89.0374C112.426 89.0374 111.823 87.2483 111.034 85.4191L110.616 84.4743L112.264 84.7758C113.564 84.9969 114.585 85.1175 114.585 85.1175C118.356 84.9062 122.139 84.9062 125.91 85.1175C129.468 85.3568 132.96 86.0758 136.261 87.2483L136.679 84.9366H136.911C136.9 85.0973 136.9 85.2584 136.911 85.4191C136.829 85.8449 136.829 86.2797 136.911 86.7056C137 86.8518 137.134 86.9741 137.297 87.0591C137.461 87.1442 137.648 87.1887 137.839 87.188C138.437 87.2303 139.032 87.08 139.51 86.7659C139.855 86.5517 140.154 86.2863 140.392 85.9819C140.491 85.8408 140.576 85.6929 140.647 85.5397L140.787 85.1979C141.088 84.2531 140.972 84.2531 140.926 83.9315L140.578 82.4841L139.023 81.9213C139.036 81.8386 139.028 81.7546 139 81.6748C138.972 81.5951 138.924 81.5215 138.86 81.459C137.584 79.9111 136.308 78.705 135.101 77.4385L133.383 75.6696L131.782 73.78C128.782 70.1447 125.469 66.7108 121.872 63.5078C122.011 63.0656 121.872 62.9048 121.524 63.2063C120.155 62.0605 118.762 60.9951 117.254 59.9297C117.254 59.9297 116.233 59.2663 114.608 58.4019C112.629 57.3178 110.53 56.4087 108.342 55.6881C106.201 54.9649 103.963 54.4786 101.681 54.2408C100.752 54.1047 99.8023 54.1047 98.8728 54.2408C97.1752 54.3086 95.4848 54.4765 93.8135 54.7433L93.0012 54.884C93.2358 54.3779 93.3692 53.8409 93.3957 53.296C93.3957 53.0548 93.3957 53.0146 93.3957 52.8939C92.1889 51.0647 90.9125 49.2957 89.6128 47.5267C89.8217 47.0845 89.7985 46.8834 89.3343 47.1649C88.6613 46.2603 87.9882 45.3557 87.292 44.4712C80.9495 36.2206 73.2301 28.8299 64.3856 22.5399C63.4573 21.8765 62.5057 21.2533 61.531 20.5297C57.9468 18.1751 54.178 16.0391 50.2519 14.1372C47.7454 12.9311 45.2157 11.7652 42.6164 10.74C39.9987 9.63333 37.2917 8.69277 34.5168 7.9257C31.7544 7.11908 28.9418 6.44795 26.0922 5.9155C24.6765 5.67427 23.3072 5.45315 21.7523 5.25213C20.5425 5.10375 19.3477 4.87525 18.1782 4.56865C16.925 4.26712 15.6486 3.9254 14.4185 3.54346L12.7243 2.98059H12.5387L12.0977 2.75946L11.2158 2.21671C10.6356 1.83478 10.0554 1.49305 9.47518 1.17142C8.54913 0.652164 7.5173 0.290562 6.43492 0.105995C5.63083 -0.0353315 4.80215 -0.0353315 3.99806 0.105995C3.15361 0.290519 2.36306 0.626052 1.67725 1.09101C1.30039 1.34716 0.971589 1.6523 0.702514 1.99559C0.511486 2.27796 0.348465 2.57385 0.215163 2.88009C0.0194955 3.45342 -0.0436029 4.05456 0.0294943 4.64906C0.224476 5.53443 0.610282 6.38005 1.1667 7.14171ZM22.3557 59.7488C21.1257 57.7385 20.0349 55.7283 18.9209 53.5573C19.3154 52.9945 19.6636 52.4517 20.0117 51.8888C22.4485 47.6674 24.7926 43.4259 27.1134 39.2045C27.5512 40.5566 28.3457 41.8022 29.4342 42.8429C30.0878 43.4732 30.8194 44.0395 31.6157 44.5315L31.1748 45.0743C30.0144 46.4814 28.5523 48.5519 28.5523 48.5519L27.7632 49.8786C26.158 52.5262 24.7849 55.2745 23.6553 58.1004C23.3768 58.8843 23.0983 59.6884 22.8895 60.4925L22.3557 59.7488ZM31.6389 30.9224C31.8429 31.1229 32.0771 31.2987 32.3352 31.4451C32.8092 31.672 33.3064 31.8604 33.8205 32.0079C34.2137 32.0888 34.6012 32.1895 34.9809 32.3095C35.1666 32.3095 35.1898 32.3095 35.2594 32.3095C35.6805 32.124 36.142 32.0174 36.6139 31.9966C37.0857 31.9758 37.5573 32.0413 37.998 32.1889C38.9311 32.4954 39.7658 32.9912 40.4321 33.6348C41.0984 34.2783 41.5768 35.0509 41.8273 35.8876C41.8273 36.0283 41.8273 36.1892 41.8273 36.3299C41.8727 36.4747 41.8727 36.6273 41.8273 36.7721V37.1943C41.7702 37.3322 41.7237 37.4732 41.6881 37.6164C41.6233 37.8716 41.5301 38.1207 41.4096 38.3602C41.2939 38.6111 41.1541 38.8531 40.9918 39.0839C40.8585 39.2986 40.7113 39.5067 40.5508 39.707C40.3652 39.8477 40.226 40.0487 40.0403 40.1694L39.7386 40.4307C39.4587 40.6361 39.146 40.8053 38.8102 40.9332C37.4853 41.348 36.0245 41.2902 34.7488 40.7724C33.2877 40.3034 32.0362 39.4447 31.1748 38.32C30.9 37.8995 30.6596 37.4629 30.4553 37.0133C30.2176 35.9829 30.4153 34.9128 31.0123 33.998C31.5059 33.3783 31.8965 32.7016 32.1727 31.9878C32.1727 31.6461 31.8942 31.5255 30.9891 31.7868L31.6389 30.9224ZM41.5024 83.1274L42.013 83.2681V83.1475L42.2218 82.9063H42.0594H42.2218L43.1269 81.8409C49.1146 74.7247 54.731 67.3473 60.0689 59.9498L68.2381 48.8534L73.8777 41.3353C73.8777 41.3353 74.3187 40.6518 74.8525 39.8879C76.4538 41.5966 78.032 43.3455 79.4941 45.1547L79.0995 45.5768C77.7999 46.8834 76.1289 48.8333 76.1289 48.8333L62.5754 67.1061C59.8136 70.8049 57.075 74.5639 54.4061 78.2426C51.667 81.603 49.2382 85.1453 47.142 88.8364C46.7594 88.7664 46.3642 88.7664 45.9816 88.8364C45.9816 88.2132 44.7283 86.5649 41.6184 83.5295L41.5024 83.1274ZM68.9576 126.488C68.9576 126.488 69.1433 126.045 69.3754 125.563C69.6074 125.08 69.5842 125.1 69.7235 124.839V125.1C69.7235 125.563 69.7235 125.965 69.7235 126.508C69.7593 126.818 69.8135 127.127 69.8859 127.432L69.2825 126.869L68.9576 126.488ZM104.002 96.5556C102.679 97.5607 101.194 98.6663 99.6851 99.6513C99.0353 100.073 98.4087 100.475 97.7821 100.837C97.7921 100.798 97.7921 100.756 97.7821 100.717C99.9414 96.3327 102.414 92.0695 105.185 87.9519C105.766 89.3389 106.23 90.6657 106.23 90.6657L107.135 91.5301C107.599 91.9522 108.086 92.3743 108.133 92.314C108.41 92.481 108.715 92.6099 109.038 92.696L108.597 92.9372C107.669 93.5001 106.207 94.7062 104.002 96.5556ZM111.521 79.891L110.779 80.0317C112.078 78.2426 113.378 76.4535 114.701 74.6845L118.855 69.0359C120.619 70.6842 122.29 72.4331 123.938 74.2624L121.802 76.4535L120.805 77.6195C120.41 78.1019 119.969 78.5642 119.551 79.0266L114.91 79.1472L111.521 79.891ZM128.278 79.2879L128.463 79.4889L126.931 79.3281C125.214 79.1874 123.52 79.1472 121.849 79.1472L122.29 78.6648L123.172 77.6195C123.172 77.6195 123.868 76.6747 124.495 75.6093L124.796 75.167L126.56 77.1772L128.278 79.2879ZM117.555 67.8499L113.471 73.3779C111.707 75.7902 109.92 78.1823 108.179 80.6147C106.207 81.1574 104.744 82.0218 106.114 82.9465C105.243 83.379 104.413 83.8696 103.631 84.414C103.491 84.414 103.491 84.414 103.514 84.414L103.654 84.6552C103.654 84.816 103.886 85.0371 104.025 85.2984C104.154 85.5142 104.27 85.7356 104.373 85.9618C101.25 90.4793 98.4967 95.1814 96.1343 100.033C95.7862 100.757 95.4613 101.481 95.1363 102.204C93.8135 102.848 92.5603 103.37 91.6319 103.732L90.1234 104.355L87.3384 105.682L85.8995 106.385L84.7159 107.009L84.5302 106.908L83.5323 106.325C83.7232 105.566 83.9792 104.82 84.2982 104.094C86.297 100.29 88.7388 96.6732 91.5855 93.299C94.2312 89.7611 96.993 86.2432 99.7315 82.7455C102.47 79.2477 105.209 75.7299 107.901 72.1718C109.224 70.3827 110.547 68.6137 111.846 66.7845L113.262 64.7743C113.262 64.7743 113.262 64.6335 113.471 64.4124C114.724 65.2969 115.977 66.2417 117.138 67.2267C117.161 67.4277 117.347 67.6287 117.555 67.7896V67.8499ZM98.5479 57.2762C99.3975 57.4304 100.235 57.6318 101.054 57.8792C101.936 58.1607 102.795 58.422 103.607 58.7436C105.224 59.365 106.777 60.1048 108.249 60.9549C109.572 61.7388 110.57 62.5027 111.428 62.9651L112.032 63.4073L111.73 63.7892L110.639 65.3371C109.34 67.1664 108.017 68.9756 106.671 70.7847C103.979 74.383 101.17 77.9411 98.3855 81.5193C95.6005 85.0974 92.8156 88.6354 90.077 92.2738C87.1164 95.8026 84.5738 99.5807 82.4879 103.551C82.2337 104.114 82.0244 104.692 81.8613 105.28C81.1883 104.818 80.5152 104.355 79.8422 103.933C78.4265 103.028 77.0804 102.325 75.6647 101.541C78.4497 97.239 81.3507 92.9975 84.3214 88.7962C87.5241 84.233 90.8428 79.7101 94.2312 75.2474C95.9254 72.996 97.6428 70.7848 99.3834 68.5534L101.101 66.3623C101.101 66.3623 103.793 62.5429 103.631 62.6635C104.628 61.0956 105.069 59.9297 102.841 62.1208C101.472 63.3872 99.7315 65.2969 99.7315 65.2969L98.4783 66.8649L93.2565 73.6996C89.7753 78.2426 86.3869 82.846 83.0913 87.5097C76.5002 96.8102 70.3114 106.325 64.5248 116.055L63.1556 118.427C63.1433 118.449 63.1369 118.473 63.1369 118.497C63.1369 118.521 63.1433 118.545 63.1556 118.567C63.4109 119.633 64.2928 119.432 64.7105 119.211L66.0798 116.839C68.2381 113.18 70.4893 109.582 72.7637 105.983L72.3692 107.29L71.9978 108.516L71.7426 109.521C71.2855 111.28 70.9369 113.058 70.6982 114.848C70.5125 116.457 70.2108 118.185 70.0252 119.954V120.959C69.7003 121.502 69.2825 122.186 68.9112 122.97C68.5398 123.754 68.0989 124.497 67.7972 125.08V125.261C65.9173 123.251 64.0143 121.241 62.5057 119.472C60.533 117.1 59.187 115.291 59.187 115.291C58.4675 114.467 57.7945 113.642 57.1447 112.798H57.3303L58.8389 110.486C64.6641 101.4 70.2108 92.1934 75.9665 83.0872C78.8133 78.5173 81.7453 73.9944 84.7623 69.5183C86.2476 67.287 87.7794 65.0557 89.4039 62.8445L90.9357 60.3719L92.1425 58.3617C92.7459 57.3968 93.3493 56.452 93.2797 56.5123C93.2755 56.4588 93.2755 56.405 93.2797 56.3515C95.0163 56.7223 96.775 57.0109 98.5479 57.2159V57.2762ZM91.9104 55.9495L92.3514 56.1304C91.0285 57.437 89.4504 59.3668 89.4504 59.3668L88.29 60.975C86.6886 63.2264 85.1104 65.4979 83.6483 67.7896C80.5617 72.3527 77.591 76.9762 74.6668 81.6198C68.7951 90.8868 63.0627 100.254 57.2375 109.461L56.0307 111.331C55.9381 111.199 55.8374 111.071 55.729 110.949L54.7774 109.602C54.4757 109.18 54.1972 108.758 53.9419 108.315C53.3866 107.45 52.8906 106.557 52.4566 105.642C52.1085 104.898 51.8068 104.154 51.5051 103.39C51.647 103.34 51.7799 103.272 51.8996 103.189C52.1781 102.365 52.5495 101.561 52.8976 100.757C55.309 96.1018 58.2066 91.6475 61.5542 87.4493C63.1788 85.2783 64.8033 83.1274 66.1958 80.876L70.5358 74.1016C73.4368 69.6188 76.4306 65.1964 79.5869 60.8544C81.1651 58.6833 82.7896 56.5324 84.4606 54.4217L85.5978 53.0146C86.2244 53.9191 86.8743 54.8237 87.5009 55.7484C87.6502 55.8583 87.8137 55.9527 87.9882 56.0299C88.6083 56.2766 89.2871 56.3925 89.9689 56.368C90.6507 56.3436 91.316 56.1794 91.9104 55.8891V55.9495ZM84.6695 51.4466L83.6715 52.6728C81.9309 54.8438 80.2599 57.035 78.6354 59.2462C75.363 63.6888 72.2996 68.2117 69.3521 72.7949L64.9658 79.6498C63.4805 81.9012 61.8327 84.0923 60.2081 86.2834C56.7307 90.6344 53.7167 95.2501 51.2034 100.073L50.716 101.199C50.716 100.777 50.4839 100.375 50.3911 99.9729C50.2983 99.5709 50.2286 99.2693 50.159 98.9477C50.0894 98.6261 50.159 98.3447 50.159 97.9828C50.159 97.2793 50.159 96.5355 50.159 95.7716C50.159 94.2237 50.275 92.6156 50.159 90.8265C50.0936 90.6486 49.9998 90.4794 49.8805 90.3239C49.641 90.0643 49.3771 89.8222 49.0915 89.6003C51.0871 85.9993 53.4155 82.5439 56.0539 79.2678C57.4696 77.4586 58.7228 75.5288 60.0921 73.7398L64.1303 68.2519L77.7767 49.8384C77.7767 49.8384 80.3064 45.9386 80.0975 46.0593L80.2367 45.7979L81.6989 47.587C82.7432 48.8132 83.718 50.0998 84.6695 51.3863V51.4466ZM65.6852 31.0832L65.105 31.6662C63.8054 32.9728 62.204 34.983 62.204 34.983L61.1132 36.5309L57.5624 41.7373L50.6 52.2105C45.9583 59.1859 41.3167 66.1412 36.1181 72.8151L34.4007 74.9861C34.4007 74.9861 34.4007 75.1067 34.4007 75.1268C34.5167 76.2123 35.3986 76.1319 35.8396 75.951C35.8396 75.951 35.8396 75.951 35.9556 75.951L37.6731 73.7599C42.7788 67.1463 47.4205 60.2915 51.9925 53.4166L58.8157 43.1244L62.2969 38.0184L63.6661 36.0082C63.6661 36.0082 65.987 31.9878 65.987 32.209C66.1262 31.9878 66.219 31.7667 66.3351 31.5858C69.0728 33.8567 71.6607 36.2594 74.0866 38.7823L72.7405 40.2699L67.3795 47.4061L59.071 58.7034C53.5474 66.2216 47.9543 73.6996 41.9202 80.8157L41.34 81.4991C41.34 81.4991 41.34 81.4991 41.2007 81.4991C40.9855 81.6605 40.8116 81.8591 40.6901 82.0821C38.6014 80.0719 36.3502 77.7602 34.6792 75.8706C33.658 74.7047 32.869 73.7196 32.3584 72.9558L31.4301 71.7497C30.5482 70.7446 29.6895 69.7194 28.854 68.6741L28.2273 67.8901L27.9024 67.488L26.7653 66.0005C25.6513 64.4928 24.6069 62.9651 23.6089 61.3971C23.7938 61.4431 23.9898 61.4431 24.1746 61.3968C24.3594 61.3506 24.5253 61.2601 24.6533 61.1358C24.6533 61.1358 24.6533 61.1358 24.6533 61.0353C24.8854 60.2111 25.1639 59.3869 25.4656 58.5627C26.5514 55.7962 27.8861 53.1077 29.4574 50.5219L30.1072 49.3962C30.1072 49.3962 32.2423 45.3758 32.1031 45.3758C32.1031 45.1748 32.2656 44.9738 32.3352 44.7928C33.2997 45.3085 34.3372 45.7139 35.4219 45.9989C37.3771 46.4926 39.4544 46.4926 41.4096 45.9989C42.0118 45.8409 42.5948 45.6322 43.1502 45.3758L43.5911 45.1547L41.7345 48.3107C40.6205 50.2003 39.4137 51.9894 38.2765 53.7583C35.6119 57.2873 33.2833 60.9984 31.314 64.8546C30.9215 65.703 30.5807 66.5686 30.2929 67.4478C30.2791 67.494 30.2791 67.5424 30.2929 67.5885C30.3277 67.7421 30.4124 67.8838 30.5368 67.9973C30.6613 68.1107 30.8205 68.1911 30.9957 68.229C31.171 68.267 31.3551 68.2609 31.5265 68.2116C31.698 68.1622 31.8497 68.0716 31.9639 67.9504C32.2252 67.124 32.5429 66.3118 32.9154 65.518C34.8425 61.8132 37.1005 58.2443 39.669 54.8438C40.9222 53.095 41.9898 51.2255 43.1502 49.4163L46.4689 43.9887C48.7124 40.3838 51.0332 36.8123 53.4314 33.2744C54.615 31.5255 55.7522 29.7565 57.0751 28.0076L58.4907 25.9974L60.0921 27.0628C62.088 28.2087 63.9214 29.5756 65.6852 31.0229V31.0832ZM57.1679 24.8717L56.0539 26.4196C54.8006 28.1885 53.5474 29.9977 52.3174 31.7868C51.0874 33.5759 49.9966 35.3047 48.7897 37.0737C48.7897 37.0737 48.7897 36.953 48.7897 36.8726C48.8371 36.4918 48.8371 36.1076 48.7897 35.7268C48.7897 35.3449 48.6737 34.9428 48.5809 34.581C48.1845 33.1313 47.4586 31.7646 46.4457 30.5606C45.2305 29.1159 43.6406 27.9385 41.8041 27.1231C41.9666 26.7613 42.129 26.3995 42.3147 26.0376C42.5004 25.6758 42.6164 25.4949 42.7788 25.2335C42.9413 24.9722 43.2198 24.5099 43.4519 24.148C43.4519 24.148 44.0321 23.1831 44.6587 22.1378C45.2853 21.0925 45.9352 20.2884 45.8423 20.3689C46.2542 19.8554 46.5386 19.2736 46.6778 18.6602L47.1187 18.8813C50.6135 20.667 53.9703 22.6478 57.1679 24.8114V24.8717ZM20.8936 11.0214C22.0772 11.1822 23.4465 11.4033 24.7461 11.6245C27.342 12.0845 29.9065 12.6683 32.428 13.3734C34.9362 14.0622 37.3802 14.9157 39.7386 15.9263C42.0594 16.8108 44.1945 17.8159 46.3761 18.8411C46.1672 18.8411 45.7031 19.223 44.8444 20.0271C43.9857 20.8312 43.3823 21.4544 42.7788 22.0373C42.1754 22.6203 41.7809 23.2032 41.7809 23.2032C41.4792 23.6455 41.2007 24.0877 40.9222 24.5501L40.4348 25.4145C40.2492 25.7763 40.0635 26.1582 39.901 26.5603C39.3997 26.4224 38.8879 26.3149 38.3693 26.2386C37.6748 26.1781 36.975 26.1781 36.2806 26.2386C35.5903 26.2702 34.9058 26.3645 34.2383 26.5201L35.8396 23.7661L36.9536 21.977L38.0212 19.9668C38.555 18.9818 39.0888 17.9566 39.0191 18.0973C39.8546 16.449 40.1795 15.2629 38.1604 17.5948C36.9304 18.9617 35.4451 21.0322 35.4451 21.0322L34.4935 22.56C33.6812 23.9068 32.8922 25.2738 32.1727 26.5804C30.5946 29.3143 29.086 32.0481 27.5311 34.8021C24.5372 40.29 21.5202 45.7778 18.4103 51.1652L18.0622 51.728C17.2499 49.959 16.4841 48.1901 15.7414 46.4211L15.254 44.9335C15.3933 44.5516 15.5325 44.1496 15.695 43.7676C17.2731 39.6065 19.1298 35.4856 21.1489 31.4451C22.17 29.4349 23.1912 27.4247 24.282 25.4145L26.8349 20.7709C26.8349 20.7709 28.8308 16.6299 28.7147 16.7505C29.4342 15.0619 29.6662 13.8558 27.8328 16.3082C26.6956 17.7154 25.3031 19.8462 25.3031 19.8462L22.7735 24.3893C21.6827 26.3995 20.5919 28.4097 19.5707 30.5606C17.6677 34.3398 15.9271 38.1793 14.3953 42.0791C13.4902 38.9029 12.7243 35.6464 12.0745 32.3899C12.722 29.9408 13.6793 27.5611 14.9291 25.2939C15.7182 23.7661 16.6001 22.2785 17.5052 20.791L19.826 17.0721C19.826 17.0721 20.383 16.067 20.9168 15.0619C21.2839 14.4421 21.6093 13.8045 21.8915 13.1522C22.6574 11.4436 22.8663 10.2776 21.0096 12.6899C19.8724 14.0769 18.3407 16.1273 18.3407 16.1273L16.0199 19.8261C15.0916 21.3338 14.1865 22.8816 13.351 24.4697C12.5155 26.0577 11.9585 27.2237 11.3783 28.6509L10.8213 25.1933C10.8213 24.5903 10.8213 23.947 10.6588 23.3037L11.2158 21.7157C12.1116 19.2768 13.1575 16.8813 14.3489 14.5393L14.9755 13.3934C14.9755 13.3934 15.4629 12.3682 15.9735 11.3832C16.1823 10.941 16.4144 10.5189 16.6001 10.1972C18.008 10.5417 19.4429 10.797 20.8936 10.9611V11.0214ZM9.70728 8.10661L10.009 8.22722C10.7749 8.50865 11.4943 8.72977 12.1906 8.95089C13.2813 9.29263 14.3721 9.57407 15.4629 9.85549C14.4417 11.1018 13.5134 12.4889 13.5134 12.4889L12.7708 13.8558C12.0049 15.283 11.3318 16.7706 10.682 18.2581C10.7912 15.7012 10.6749 13.1408 10.3339 10.5993C10.1947 9.91579 10.0554 9.21222 9.84652 8.58906V8.34784V8.22722L9.70728 8.10661Z" fill="#298FFE"/>
<path d="M114.64 100.562C112.593 101.035 110.615 101.71 108.745 102.572C105.121 104.097 101.755 106.045 98.7421 108.361C97.0432 109.662 95.5385 111.14 94.2629 112.764C93.0381 114.552 92.1821 116.511 91.7332 118.553V118.814V119.619C91.6979 120.194 91.6979 120.771 91.7332 121.347C91.7527 121.932 91.807 122.516 91.8957 123.096C91.8957 123.659 92.1046 124.222 92.267 124.785C92.8936 126.935 93.9458 128.976 95.3769 130.815C97.4941 133.505 100.033 135.927 102.92 138.012C103.616 138.535 104.312 139.057 105.008 139.54L105.194 139.66L110.671 137.208V136.745V136.002L110.509 134.514V133.911L111.947 134.796C115.709 136.972 119.676 138.868 123.807 140.464C125.849 141.268 127.915 141.992 130.003 142.676L132.139 143.359L135.156 144.244C137.151 144.826 139.24 145.43 141.213 145.952C141.004 144.143 140.818 142.314 140.586 140.525C140.47 139.62 140.401 138.756 140.238 137.831C140.238 137.369 140.052 136.906 139.96 136.444L139.82 135.72C139.356 133.71 138.822 131.861 138.149 129.991C136.852 126.268 135.239 122.633 133.322 119.116C132.997 118.493 132.626 117.91 132.301 117.307L132.742 117.669L133.531 118.332L133.926 118.654L134.436 119.116L137.36 122.031L140.911 125.549L142.025 126.634L142.582 127.177L142.861 127.458L143 127.599L142.745 126.634L142.072 124.001L141.538 121.991L141.19 120.604L140.006 116C139.518 114.267 138.786 112.593 137.825 111.015C136.633 109.017 135.218 107.125 133.601 105.366C132.647 104.35 131.624 103.383 130.537 102.471C128.993 101.172 127.279 100.032 125.431 99.0742C123.374 97.9429 121.035 97.2537 118.608 97.064C118.338 97.1047 118.079 97.1864 117.842 97.3053C117.383 97.5063 116.978 97.7894 116.654 98.1359C116.33 98.4824 116.094 98.8844 115.962 99.3155C115.856 99.6783 115.856 100.058 115.962 100.421C115.515 100.387 115.064 100.434 114.64 100.562ZM100.019 115.839C100.204 115.498 100.506 115.015 100.9 114.452C101.953 113.018 103.157 111.672 104.498 110.432C107.468 107.658 111.066 105.326 110.671 105.447C112.642 104.149 114.44 102.666 116.032 101.024C116.144 101.22 116.284 101.402 116.45 101.567L115.104 102.874L113.967 104.22L111.646 106.974C110.114 108.824 108.629 110.693 107.143 112.583L102.2 118.975L99.8793 116.764L99.6007 116.503C99.5931 116.456 99.5931 116.409 99.6007 116.362C99.7196 116.17 99.8595 115.988 100.019 115.819V115.839ZM98.5796 123.478C98.5796 123.116 98.4171 122.754 98.3243 122.413C98.2315 122.071 98.3243 121.709 98.3243 121.347C98.2894 121 98.2894 120.65 98.3243 120.302V119.82V119.659C98.3243 119.418 98.3243 119.176 98.51 118.935L99.6936 122.171L98.5564 123.639C98.5539 123.578 98.5617 123.517 98.5796 123.458V123.478ZM99.4151 125.488L99.9721 124.785L100.483 124.121L101.55 127.036C101.829 127.88 102.061 128.664 102.293 129.408C101.742 128.85 101.238 128.259 100.784 127.639C100.255 126.952 99.797 126.225 99.4151 125.468V125.488ZM126.801 121.609C127.543 122.949 128.24 124.356 128.889 125.83C127.845 126.996 126.87 128.242 126.87 128.242L126.012 129.529C125.478 130.413 124.944 131.298 124.457 132.182C123.969 133.067 123.83 133.409 123.528 134.032C121.44 133.147 119.444 132.182 117.494 131.157C117.681 131.116 117.855 131.041 118.005 130.936C118.33 130.112 118.701 129.288 119.072 128.484C120.233 125.951 121.509 123.478 122.925 121.066L123.575 119.94C123.575 119.94 124.085 118.995 124.573 117.93C125.408 119.116 126.128 120.362 126.801 121.589V121.609ZM132.904 137.509L131.999 137.228C130.05 136.565 128.1 135.901 126.197 135.218L125.199 134.796C125.478 134.172 125.78 133.549 126.128 132.946C126.476 132.343 127.102 131.217 127.636 130.373L128.332 129.288L129.493 127.277C130.143 128.745 130.746 130.253 131.257 131.76C131.767 133.268 132.324 135.198 132.742 136.926L132.904 137.509ZM125.431 106.592L127.915 108.944H127.59C126.824 108.788 126.049 108.667 125.269 108.583H124.666L121.486 113.065V113.166L121.625 113.347L122.136 114.07C122.716 114.935 123.273 115.799 123.83 116.684C122.925 117.829 122.136 118.955 122.136 118.955L121.347 120.282C119.931 122.754 118.608 125.267 117.425 127.82C117.053 128.664 116.682 129.489 116.334 130.333C116.334 130.333 116.334 130.454 116.334 130.474V130.594L115.243 129.991L114.013 129.227C113.102 128.689 112.241 128.091 111.437 127.438L109.905 126.252C109.905 126.011 110.091 125.77 110.207 125.529C111.31 123.179 112.637 120.913 114.175 118.754C115.684 116.563 117.309 114.412 118.956 112.261L119.745 111.216C119.745 111.216 122.368 107.336 122.205 107.457C123.134 105.849 123.505 104.683 121.37 106.934C120.07 108.221 118.353 110.15 118.353 110.15L117.425 111.397C115.777 113.548 114.129 115.719 112.597 117.95C111.008 120.18 109.634 122.52 108.489 124.946V125.066L106.029 122.674L103.5 120.242L108.536 113.709C109.998 111.859 111.437 110.03 112.922 108.221L115.243 105.527L116.496 104.039L117.541 102.673L117.703 102.833C117.842 102.974 117.866 102.974 117.958 102.974C119.288 103.092 120.568 103.478 121.695 104.1C123.049 104.801 124.303 105.637 125.431 106.592Z" fill="#298FFE"/>
</g>
</svg>
