<svg width="35" height="35" viewBox="0 0 35 35" fill="none" xmlns="http://www.w3.org/2000/svg">
<path d="M26.0862 15.8908C28.1206 15.6049 29.6868 13.8608 29.6912 11.7476C29.6912 9.66515 28.1731 7.93848 26.1824 7.61182" stroke="#298FFE" stroke-width="2.5" stroke-linecap="round" stroke-linejoin="round"/>
<path d="M28.7708 20.7817C30.741 21.0763 32.1162 21.7661 32.1162 23.188C32.1162 24.1665 31.4687 24.8024 30.4216 25.2019" stroke="#262626" stroke-width="2.5" stroke-linecap="round" stroke-linejoin="round"/>
<path fill-rule="evenodd" clip-rule="evenodd" d="M17.3347 21.3848C12.6477 21.3848 8.64453 22.095 8.64453 24.9314C8.64453 27.7664 12.6229 28.4971 17.3347 28.4971C22.0218 28.4971 26.0235 27.7941 26.0235 24.9562C26.0235 22.1183 22.0466 21.3848 17.3347 21.3848Z" stroke="#262626" stroke-width="2.5" stroke-linecap="round" stroke-linejoin="round"/>
<path fill-rule="evenodd" clip-rule="evenodd" d="M17.3348 17.3365C20.4104 17.3365 22.9042 14.8442 22.9042 11.7671C22.9042 8.6915 20.4104 6.19775 17.3348 6.19775C14.2592 6.19775 11.7654 8.6915 11.7654 11.7671C11.7538 14.8325 14.2285 17.3263 17.294 17.3365H17.3348Z" stroke="#298FFE" stroke-width="2.5" stroke-linecap="round" stroke-linejoin="round"/>
<path d="M8.58205 15.8908C6.54622 15.6049 4.98143 13.8608 4.97705 11.7476C4.97705 9.66515 6.49518 7.93848 8.4858 7.61182" stroke="#298FFE" stroke-width="2.5" stroke-linecap="round" stroke-linejoin="round"/>
<path d="M5.89742 20.7817C3.92721 21.0763 2.552 21.7661 2.552 23.188C2.552 24.1665 3.1995 24.8024 4.24659 25.2019" stroke="#262626" stroke-width="2.5" stroke-linecap="round" stroke-linejoin="round"/>
</svg>
