<svg width="21" height="21" viewBox="0 0 21 21" fill="none" xmlns="http://www.w3.org/2000/svg">
<path d="M18.9894 19.7896C18.9892 19.9488 18.9586 20.1064 18.8995 20.2534C18.8404 20.4005 18.7538 20.534 18.6448 20.6464C18.5358 20.7588 18.4065 20.8479 18.2642 20.9085C18.1219 20.9692 17.9694 21.0003 17.8155 21H3.31881C3.1014 21.0017 2.88784 20.9405 2.70219 20.8235C2.51654 20.7064 2.36617 20.538 2.26802 20.3373C2.16987 20.1366 2.12783 19.9115 2.14664 19.6874C2.16545 19.4633 2.24437 19.2491 2.37449 19.0689L2.64614 18.665L13.6315 2.42075L3.36313 2.42075C3.04962 2.42093 2.74832 2.29499 2.5229 2.06956C2.29748 1.84412 2.16561 1.53685 2.15514 1.21266C2.15473 1.05341 2.18496 0.895671 2.24407 0.748633C2.30319 0.601595 2.39 0.468203 2.49946 0.356235C2.71885 0.12897 3.01633 0.000880437 3.32679 0L17.7189 0C17.9228 0.00052859 18.1229 0.0567309 18.299 0.162926C18.4752 0.26912 18.6211 0.421543 18.722 0.604786C18.823 0.788028 18.8754 0.995596 18.8739 1.20651C18.8725 1.41742 18.8172 1.62419 18.7138 1.80593L18.6371 1.92468L18.4155 2.24973L7.56316 18.5792H17.8155C17.9694 18.5789 18.1219 18.61 18.2642 18.6707C18.4065 18.7313 18.5358 18.8204 18.6448 18.9328C18.7538 19.0452 18.8404 19.1787 18.8995 19.3257C18.9586 19.4727 18.9892 19.6304 18.9894 19.7896Z" fill="white"/>
<path d="M6.64437 11.1798L5.38586 13.0798H0.918176C0.7976 13.0798 0.678204 13.0552 0.566805 13.0074C0.455407 12.9597 0.354188 12.8897 0.268928 12.8015C0.183667 12.7133 0.116035 12.6086 0.069892 12.4933C0.0237493 12.3781 0 12.2545 0 12.1298C0 12.005 0.0237493 11.8815 0.069892 11.7663C0.116035 11.651 0.183667 11.5463 0.268928 11.4581C0.354188 11.3699 0.455407 11.2999 0.566805 11.2521C0.678204 11.2044 0.7976 11.1798 0.918176 11.1798H6.64437Z" fill="white"/>
<path d="M20.9153 12.1298C20.9158 12.2547 20.8924 12.3785 20.8465 12.494C20.8005 12.6095 20.7329 12.7144 20.6475 12.8027C20.5622 12.8911 20.4607 12.961 20.3491 13.0086C20.2375 13.0561 20.1178 13.0803 19.9971 13.0798H12.1766L13.4352 11.1798H19.9967C20.1173 11.1798 20.2367 11.2043 20.3482 11.252C20.4596 11.2997 20.5609 11.3697 20.6462 11.4579C20.7315 11.5461 20.7992 11.6509 20.8453 11.7662C20.8915 11.8814 20.9153 12.005 20.9153 12.1298Z" fill="white"/>
<path d="M8.79845 7.91522L7.53817 9.81514L0.918176 9.81514C0.674661 9.81514 0.441119 9.71506 0.268928 9.5369C0.0967361 9.35875 0 9.11713 0 8.86518C0 8.61324 0.0967361 8.37161 0.268928 8.19346C0.441119 8.01531 0.674661 7.91522 0.918176 7.91522L8.79845 7.91522Z" fill="white"/>
<path d="M20.9159 8.86931C20.9164 8.99421 20.893 9.11799 20.8471 9.23349C20.8011 9.34899 20.7335 9.45393 20.6481 9.54225C20.5628 9.63057 20.4613 9.70052 20.3497 9.74807C20.2381 9.79561 20.1184 9.81981 19.9977 9.81927H14.338L15.5983 7.91522H19.9977C20.1186 7.91522 20.2384 7.93993 20.35 7.98793C20.4617 8.03592 20.5631 8.10627 20.6484 8.19492C20.7337 8.28357 20.8012 8.38878 20.8471 8.50451C20.8931 8.62024 20.9164 8.74421 20.9159 8.86931Z" fill="white"/>
</svg>
