<svg width="6" height="12" viewBox="0 0 6 12" fill="none" xmlns="http://www.w3.org/2000/svg">
<path d="M0 8H1.2C1.2 8.72 2.022 9.33333 3 9.33333C3.978 9.33333 4.8 8.72 4.8 8C4.8 7.26667 4.176 7 2.856 6.64667C1.584 6.29333 0 5.85333 0 4C0 2.80667 0.882 1.79333 2.1 1.45333V0H3.9V1.45333C5.118 1.79333 6 2.80667 6 4H4.8C4.8 3.28 3.978 2.66667 3 2.66667C2.022 2.66667 1.2 3.28 1.2 4C1.2 4.73333 1.824 5 3.144 5.35333C4.416 5.70667 6 6.14667 6 8C6 9.19333 5.118 10.2067 3.9 10.5467V12H2.1V10.5467C0.882 10.2067 0 9.19333 0 8Z" fill="black"/>
</svg>
