<svg width="80" height="26" viewBox="0 0 80 26" fill="none" xmlns="http://www.w3.org/2000/svg">
<path d="M79.9919 11.6111C79.9994 11.561 80.0017 11.5094 79.999 11.4569C80.0007 11.2887 79.9546 11.1142 79.866 10.9528C79.7773 10.7914 79.6495 10.6494 79.4969 10.5428C79.3442 10.4361 79.1727 10.369 79.0015 10.3488C78.8302 10.3287 78.666 10.3563 78.5272 10.4286C78.5085 10.434 78.492 10.4436 78.4788 10.4569C78.4656 10.4701 78.456 10.4866 78.4506 10.5052L78.1132 11.0387C78.0023 11.2182 77.8678 11.3821 77.7432 11.5558L77.3634 12.063C77.2142 12.2122 77.065 12.3614 76.955 12.5498C74.8913 14.855 72.443 16.7816 69.685 18.2707C66.9249 19.8059 63.9817 21.0593 60.8907 22.0158C54.7983 24.0923 48.0004 24.553 41.0663 23.3592C34.1214 22.0727 27.247 19.3246 20.9149 15.3036C17.7353 13.314 14.6762 11.0937 11.7685 8.66513L10.7034 7.76937L10.2683 7.3907L10.1899 7.31228L9.86632 6.98874L9.18381 6.38688C9.18381 6.38688 8.92029 6.1798 8.53998 5.864C8.15967 5.54821 7.64874 5.11791 7.14762 4.69743C6.15747 3.84437 5.18606 3.00198 5.2524 3.09251C5.16416 3.00427 5.08574 2.92585 5.0024 2.84251L5.15111 2.87027C5.80852 2.9874 6.46507 3.0956 7.119 3.17699C7.60318 3.24185 8.07669 3.28797 8.5551 3.33899C8.5551 3.33899 9.81188 3.38617 11.0095 3.32583C11.7649 3.31001 12.5093 3.24657 13.2387 3.13589C13.902 3.09143 14.5201 2.90121 15.0516 2.57797C15.1242 2.50539 15.0083 2.40562 14.6961 2.33539C14.1527 2.2437 13.6105 2.18351 13.0724 2.15512C12.179 2.0681 11.0135 1.959 10.1256 1.83711C9.23763 1.71523 8.57793 1.62001 8.57793 1.62001C8.05168 1.5776 7.5237 1.51732 6.99485 1.44811C6.46599 1.37891 5.74288 1.26865 5.10018 1.16623L4.1534 0.98552L3.68361 0.886675C3.51615 0.848242 3.43083 0.835497 3.06825 0.747085L1.7139 0.424913L0.262679 0.06233L0.081397 0.0181328C0.081397 0.0181328 0.0171142 -0.00582895 0.000116217 0.00136477L0.0485836 0.0901419L0.236695 0.43147L0.617811 1.11902C0.874868 1.57767 1.123 2.03547 1.37112 2.49325L1.5503 2.8337L1.69745 3.11794L1.86278 3.45261L2.18365 4.11217C2.40007 4.56244 2.60265 5.00694 2.79314 5.46354C3.18007 6.32699 3.45439 7.21727 3.60834 8.10925C3.63747 8.14521 3.67043 8.17816 3.70639 8.2073C3.8367 8.37219 3.99777 8.51203 4.17736 8.61616C4.35695 8.7203 4.55032 8.78597 4.74276 8.80822C4.88278 8.79039 5.01029 8.73888 5.11525 8.65774C5.22021 8.5766 5.29977 8.46804 5.34765 8.34061C5.37221 8.30438 5.38325 8.25908 5.37927 8.21095C5.20274 7.14633 4.88023 6.08284 4.4211 5.05133C4.21907 4.56706 4.00407 4.08595 3.78013 3.60398C3.66817 3.36299 3.55217 3.12602 3.43214 2.89309L3.2241 2.48346L3.31922 2.50601L3.79795 2.60573C3.98313 2.87155 4.25077 3.21177 4.60263 3.64427C5.25644 4.45129 6.08009 5.41202 6.76987 6.13406C7.12773 6.49192 7.43656 6.80075 7.62893 7.04957C7.8213 7.29839 7.97698 7.39762 7.97698 7.39762L8.68889 8.02889L9.0473 8.34698L9.21397 8.51365L9.29731 8.59699C9.29731 8.59699 9.41496 8.71464 9.48849 8.78817L9.77337 9.03273C11.2704 10.3201 12.815 11.5502 14.3869 12.7431C15.9588 13.936 17.5822 15.0675 19.2376 16.1181C25.8521 20.4723 33.0707 23.4916 40.391 24.9659C47.7299 26.3479 54.9487 25.9452 61.4178 23.7928C64.6649 22.8128 67.7553 21.5142 70.6503 19.9134C73.6025 18.3366 76.2183 16.2823 78.4146 13.8158C78.5759 13.6545 78.7331 13.4973 78.8552 13.2968L79.2664 12.7484C79.3942 12.5617 79.5408 12.3857 79.6677 12.1901L79.9919 11.6111Z" fill="#298FFE"/>
</svg>
