<svg width="169" height="115" viewBox="0 0 169 115" fill="none" xmlns="http://www.w3.org/2000/svg">
<rect width="168" height="115" rx="21" fill="#298FFE"/>
<path d="M168.001 82.6562C143.685 26.9531 123.791 30.5469 48.6328 0H147.001C158.599 0 168.001 9.40202 168.001 21V82.6562Z" fill="#D1E7FF"/>
<path opacity="0.4" d="M91.7274 33.1246C91.6521 33.0817 91.5668 33.0578 91.4794 33.055C91.392 33.0522 91.3052 33.0706 91.2271 33.1085C91.149 33.1464 91.082 33.2027 91.0322 33.2721C90.9824 33.3415 90.9515 33.4219 90.9423 33.5058C90.9234 33.6714 90.8951 33.8375 90.8574 34.0112C89.8324 38.5022 87.774 40.6863 84.5623 40.6863H79.8497C79.7292 40.6865 79.6125 40.7269 79.5193 40.8006C79.4261 40.8743 79.362 40.9767 79.3379 41.0907L77.7672 48.1975L77.4844 50.0067C77.4416 50.2252 77.4491 50.4502 77.5063 50.6656C77.5636 50.881 77.6692 51.0816 77.8158 51.2533C77.9624 51.4249 78.1462 51.5633 78.3544 51.6586C78.5626 51.7539 78.7899 51.8039 79.0203 51.805H82.1721C82.5237 51.8067 82.8657 51.694 83.1427 51.485C83.4198 51.276 83.6158 50.9829 83.699 50.6531L84.9714 45.74H87.7047C90.9286 45.74 93.1567 43.2584 93.9786 38.7529C94.2434 37.7051 94.1697 36.6041 93.7672 35.598C93.3648 34.5918 92.653 33.7287 91.7274 33.1246Z" fill="#D1E7FF"/>
<path d="M90.7406 29.3484C90.229 28.7882 89.601 28.3382 88.8973 28.0278C88.1937 27.7174 87.4302 27.5536 86.6566 27.5469H77.9873C77.3595 27.5434 76.7514 27.7589 76.2752 28.1537C75.7989 28.5486 75.4865 29.0963 75.3953 29.696L72.7049 47.0316C72.6713 47.2475 72.6864 47.4678 72.7492 47.6775C72.8119 47.8873 72.9209 48.0815 73.0685 48.2468C73.2162 48.4121 73.3991 48.5448 73.6048 48.6356C73.8104 48.7264 74.0339 48.7733 74.2601 48.773H78.2809C78.4014 48.7728 78.5181 48.7324 78.6113 48.6587C78.7045 48.585 78.7686 48.4826 78.7927 48.3686L80.2743 41.6977H84.5675C88.2928 41.6977 90.7547 39.1838 91.8853 34.2179C91.9307 34.0199 91.9656 33.8197 91.9899 33.6183C92.1194 32.8617 92.0747 32.0868 91.8587 31.3488C91.6428 30.6108 91.261 29.9278 90.7406 29.3484Z" fill="white"/>
</svg>
