<svg width="27" height="27" viewBox="0 0 27 27" fill="none" xmlns="http://www.w3.org/2000/svg">
<path d="M23.0936 24.6652C20.4386 27.3202 13.6393 24.8254 7.90694 19.0931C2.17456 13.3607 -0.320149 6.56138 2.33484 3.90638L4.08295 2.15827C5.28977 0.951453 7.27831 0.983354 8.52447 2.22952L11.2321 4.93719C12.4783 6.18336 12.5102 8.1719 11.3034 9.37872L10.9279 9.75419C10.2763 10.4058 10.2126 11.4569 10.818 12.1906C11.402 12.8983 12.0316 13.6031 12.7142 14.2858C13.3969 14.9684 14.1017 15.598 14.8094 16.182C15.5431 16.7874 16.5942 16.7237 17.2458 16.0721L17.6213 15.6966C18.8281 14.4898 20.8166 14.5217 22.0628 15.7679L24.7705 18.4755C26.0166 19.7217 26.0485 21.7102 24.8417 22.9171L23.0936 24.6652Z" stroke="#298FFE" stroke-width="2.5"/>
</svg>
