<svg width="24" height="23" viewBox="0 0 24 23" fill="none" xmlns="http://www.w3.org/2000/svg">
<path opacity="0.4" d="M6.70552 12.3534C6.18941 12.3534 5.7716 12.7598 5.7716 13.2617L5.51413 17.6497C5.51413 18.2894 6.0478 18.8073 6.70552 18.8073C7.36325 18.8073 7.89574 18.2894 7.89574 17.6497L7.63944 13.2617C7.63944 12.7598 7.22164 12.3534 6.70552 12.3534Z" fill="#298FFE"/>
<path d="M7.98037 3.52039C7.98037 3.52039 7.71236 3.25631 7.54618 3.14135C7.30509 2.96378 7.00783 2.875 6.71173 2.875C6.37936 2.875 6.07039 2.97517 5.81877 3.16412C5.77313 3.20851 5.57886 3.37583 5.41852 3.53177C4.41204 4.44351 2.76539 6.82358 2.26215 8.06997C2.18257 8.25892 2.01053 8.73698 2 8.99309C2 9.23667 2.05618 9.47115 2.17087 9.69311C2.3312 9.97084 2.58282 10.1939 2.88009 10.3157C3.08606 10.3943 3.70282 10.5161 3.71453 10.5161C4.38981 10.639 5.48757 10.705 6.70003 10.705C7.85514 10.705 8.90727 10.639 9.59308 10.5388C9.60478 10.5274 10.3702 10.4057 10.6335 10.2713C11.1133 10.0266 11.4118 9.54855 11.4118 9.03748V8.99309C11.4001 8.65958 11.1016 7.95842 11.0911 7.95842C10.5879 6.77919 9.02079 4.45489 7.98037 3.52039Z" fill="#298FFE"/>
<path opacity="0.4" d="M17.2947 10.6467C17.8108 10.6467 18.2286 10.2404 18.2286 9.73838L18.4849 5.35034C18.4849 4.71063 17.9524 4.19272 17.2947 4.19272C16.637 4.19272 16.1033 4.71063 16.1033 5.35034L16.3608 9.73838C16.3608 10.2404 16.7786 10.6467 17.2947 10.6467Z" fill="#298FFE"/>
<path d="M21.8291 13.3068C21.6688 13.029 21.4172 12.8071 21.1199 12.6841C20.9139 12.6056 20.296 12.4838 20.2855 12.4838C19.6102 12.3609 18.5124 12.2948 17.3 12.2948C16.1448 12.2948 15.0927 12.3609 14.4069 12.461C14.3952 12.4724 13.6298 12.5953 13.3665 12.7285C12.8855 12.9732 12.5882 13.4513 12.5882 13.9635V14.0079C12.5999 14.3414 12.8972 15.0415 12.9089 15.0415C13.4121 16.2207 14.978 18.5462 16.0196 19.4796C16.0196 19.4796 16.2876 19.7437 16.4538 19.8575C16.6937 20.0362 16.991 20.125 17.2894 20.125C17.6206 20.125 17.9284 20.0248 18.1812 19.8359C18.2269 19.7915 18.4211 19.6242 18.5815 19.4694C19.5868 18.5565 21.2346 16.1763 21.7367 14.9311C21.8174 14.7421 21.9895 14.2629 22 14.0079C22 13.7632 21.9438 13.5287 21.8291 13.3068Z" fill="#298FFE"/>
</svg>
