<svg width="169" height="115" viewBox="0 0 169 115" fill="none" xmlns="http://www.w3.org/2000/svg">
<rect width="168" height="115" rx="24" fill="#FF55BB"/>
<path d="M168.001 82.6562C143.685 26.9531 123.791 30.5469 48.6328 0H144.001C157.256 0 168.001 10.7452 168.001 24V82.6562Z" fill="#F2DCF6"/>
<path d="M90.5561 38.3359C90.8721 38.3359 91.1751 38.2097 91.3986 37.9851C91.622 37.7604 91.7475 37.4557 91.7475 37.138C91.7475 36.8203 91.622 36.5156 91.3986 36.291C91.1751 36.0663 90.8721 35.9401 90.5561 35.9401C90.2401 35.9401 89.937 36.0663 89.7135 36.291C89.4901 36.5156 89.3646 36.8203 89.3646 37.138C89.3646 37.4557 89.4901 37.7604 89.7135 37.9851C89.937 38.2097 90.2401 38.3359 90.5561 38.3359Z" fill="#FF55BB"/>
<path d="M76.2582 38.3359C76.5742 38.3359 76.8772 38.2097 77.1007 37.9851C77.3241 37.7604 77.4496 37.4557 77.4496 37.138C77.4496 36.8203 77.3241 36.5156 77.1007 36.291C76.8772 36.0663 76.5742 35.9401 76.2582 35.9401C75.9422 35.9401 75.6391 36.0663 75.4156 36.291C75.1922 36.5156 75.0667 36.8203 75.0667 37.138C75.0667 37.4557 75.1922 37.7604 75.4156 37.9851C75.6391 38.2097 75.9422 38.3359 76.2582 38.3359Z" fill="#FF55BB"/>
<rect x="71.4922" y="27.5547" width="23.8298" height="19.1667" rx="4" fill="white"/>
<path d="M76.2582 30.5495C76.2582 31.5419 75.458 32.3463 74.4709 32.3463C73.4839 32.3463 72.6837 31.9911 72.6837 30.9987C72.6837 30.0063 73.9307 28.7526 74.9177 28.7526C75.9048 28.7526 76.2582 29.5571 76.2582 30.5495Z" fill="#FF55BB"/>
<path d="M74.4709 41.9297C75.458 41.9297 76.2582 42.7342 76.2582 43.7266C76.2582 44.7189 75.9048 45.5234 74.9177 45.5234C73.9307 45.5234 72.6837 44.2697 72.6837 43.2773C72.6837 42.285 73.4839 41.9297 74.4709 41.9297Z" fill="#FF55BB"/>
<path d="M90.556 43.7266C90.556 42.7342 91.3562 41.9297 92.3433 41.9297C93.3304 41.9297 94.1305 42.285 94.1305 43.2773C94.1305 44.2697 92.8835 45.5234 91.8965 45.5234C90.9094 45.5234 90.556 44.7189 90.556 43.7266Z" fill="#FF55BB"/>
<path d="M92.3433 32.3463C91.3562 32.3463 90.556 31.5419 90.556 30.5495C90.556 29.5571 90.9094 28.7526 91.8965 28.7526C92.8835 28.7526 94.1305 30.0063 94.1305 30.9987C94.1305 31.9911 93.3304 32.3463 92.3433 32.3463Z" fill="#FF55BB"/>
<path d="M86.9816 36.5391C86.9816 38.8546 85.3812 40.7318 83.4071 40.7318C81.433 40.7318 79.8326 38.8546 79.8326 36.5391C79.8326 34.2235 81.433 32.3463 83.4071 32.3463C85.3812 32.3463 86.9816 34.2235 86.9816 36.5391ZM81.4649 36.5391C81.4649 37.7972 82.3344 38.8172 83.4071 38.8172C84.4798 38.8172 85.3493 37.7972 85.3493 36.5391C85.3493 35.2809 84.4798 34.2609 83.4071 34.2609C82.3344 34.2609 81.4649 35.2809 81.4649 36.5391Z" fill="#FF55BB"/>
<ellipse cx="76.2582" cy="37.138" rx="1.19149" ry="1.19792" fill="#FF55BB"/>
<ellipse cx="90.5561" cy="37.138" rx="1.19149" ry="1.19792" fill="#FF55BB"/>
</svg>
