<svg width="280" height="143" viewBox="0 0 280 143" fill="none" xmlns="http://www.w3.org/2000/svg">
<path d="M226.994 142.456C219.978 142.091 212.962 141.548 205.946 140.883C198.93 140.218 191.999 139.42 185.053 138.456C181.587 137.968 178.107 137.458 174.627 136.793C171.147 136.128 167.766 135.474 164.37 134.71C160.974 133.945 157.592 133.158 154.211 132.36L149.187 131.052L146.676 130.387L144.192 129.667C137.527 127.805 130.988 125.655 124.547 123.317C118.11 120.981 111.826 118.392 105.717 115.559C99.5895 112.754 93.655 109.695 87.9384 106.393C86.5352 105.562 85.0618 104.764 83.7288 103.889L79.5193 101.295C78.1161 100.42 76.8112 99.5001 75.4501 98.6024C74.7766 98.148 74.0469 97.7158 73.4295 97.2503L71.4509 95.8428C68.7849 93.992 66.2592 92.0304 63.7195 90.0909C62.4706 89.0935 61.2498 88.0849 60.015 87.0764C59.3976 86.5777 58.7802 86.079 58.1769 85.5692L56.3948 84.0065C55.2161 82.9648 53.9953 81.9562 52.8587 80.8701L49.435 77.6673C48.2984 76.559 47.232 75.4507 46.1375 74.3425L44.4818 72.7022L42.9102 71.0177C38.6305 66.5846 34.7577 61.8856 31.0252 57.1422L28.2188 53.5514C27.3068 52.3655 26.4789 51.1243 25.6089 49.9163C23.8409 47.5003 22.2694 45.0067 20.6277 42.5352C19.7998 41.294 19.0701 40.0306 18.2983 38.7782L17.2179 37.0271L16.6146 36.0297L15.4639 34.0237L14.5659 32.1508L13.6538 30.2335L12.6856 28.017L10.9737 24.0494C10.8241 24.7882 10.6557 25.527 10.4686 26.2659C10.1599 27.4739 9.86523 28.6819 9.5004 29.8788C9.5004 29.8788 8.34979 33.0263 6.94659 36.0076C6.11835 37.8969 5.15326 39.7471 4.05603 41.5489C2.65286 43.8984 1.24969 45.727 0.477936 45.9819C0.127136 46.1039 -0.0552979 45.8378 0.0148621 45.0288C0.224121 43.6358 0.547546 42.255 0.983063 40.895C1.58643 38.5122 2.3862 35.6529 2.86328 33.381C3.34036 31.109 3.73334 29.4466 3.73334 29.4466C4.14026 28.1056 4.49103 26.7646 4.82779 25.4236C5.48727 22.7084 5.97839 19.982 6.32919 17.2446L6.45544 16.2028L6.59579 14.7399C6.66595 14.0528 6.70804 13.3324 6.75012 12.601C6.79224 11.8695 6.75012 11.127 6.75012 10.3844L6.93256 1.41858V0L7.3255 0.576303L9.05136 3.14747L10.8194 5.79622L11.7034 7.11506L12.5172 8.22333C13.0024 8.96615 13.5461 9.68423 14.1449 10.3734C14.6782 10.9718 15.2113 11.6035 15.7585 12.1798C16.0251 12.468 16.3058 12.7451 16.5865 13.011L16.9933 13.41L17.8353 14.1858C22.5958 18.2857 27.7567 22.084 33.2704 25.5455L37.1432 28.1389C38.378 28.9701 39.6127 29.7791 40.9037 30.7987C40.9909 30.9321 41.0569 31.0736 41.1001 31.2198C41.3033 31.906 41.1992 32.6267 40.8055 33.259C40.6533 33.4463 40.4332 33.5931 40.174 33.6802C39.9484 33.7658 39.7067 33.8219 39.4584 33.8464L38.7849 33.9683C38.5913 34.0274 38.3882 34.0647 38.1815 34.0791H37.9149H37.6202C37.4474 34.0908 37.2738 34.0908 37.101 34.0791C37.0412 34.0823 36.9813 34.075 36.9255 34.0578C36.8698 34.0405 36.8195 34.0138 36.7783 33.9794C35.8241 33.2147 34.6034 32.3946 33.4247 31.6077L29.7764 29.1917C24.0253 25.5791 18.6481 21.61 13.6959 17.3222L12.2927 16.0477L12.0963 17.7987C12.0963 18.3085 11.956 18.8184 11.8718 19.3282C12.2928 19.8934 12.7698 20.5583 13.275 21.3674L15.6604 24.7808C16.4742 25.9445 17.26 27.1082 17.9336 28.1056L20.3891 31.6631L21.5257 33.6691C21.7221 34.0016 21.9045 34.3341 22.115 34.6666L23.5182 37.0271C29.6635 47.0398 36.8786 56.6204 45.0851 65.6647C49.1824 70.1643 53.5042 74.5309 58.1347 78.6979C62.7652 82.865 67.5361 86.8769 72.6998 90.6118C77.8635 94.3466 83.2377 97.9042 88.8224 101.251C94.4278 104.572 100.245 107.664 106.25 110.516C118.285 116.21 130.969 121 144.136 124.824C150.703 126.786 157.424 128.426 164.173 129.955L169.267 131.063L174.389 132.061C176.115 132.404 177.784 132.726 179.496 132.992C181.208 133.258 182.92 133.535 184.646 133.779C198.548 135.726 212.572 137.087 226.657 137.857C233.673 138.234 240.689 138.445 247.705 138.345C254.589 138.349 261.456 137.784 268.191 136.66C270.981 136.185 273.651 135.346 276.091 134.178C276.23 134.157 276.373 134.157 276.512 134.178C278.21 134.377 279.319 134.82 279.754 135.497C279.941 135.852 280.023 136.236 279.994 136.62C279.965 137.004 279.825 137.378 279.585 137.713C279.567 137.776 279.533 137.834 279.485 137.886C279.436 137.937 279.375 137.98 279.305 138.012C278.519 138.378 277.719 138.777 276.919 139.121C276.119 139.464 275.292 139.719 274.478 139.963L272.022 140.628L269.567 141.16C262.525 142.359 255.344 142.976 248.14 143C241.082 143.011 234.024 142.833 226.994 142.456Z" fill="#298FFE"/>
</svg>
