<svg width="11" height="10" viewBox="0 0 11 10" fill="none" xmlns="http://www.w3.org/2000/svg">
<path d="M4.46325 8.82822C4.41008 8.77642 4.18275 8.58086 3.99575 8.39868C2.81967 7.33065 0.894667 4.54449 0.307083 3.08622C0.212667 2.86475 0.0128333 2.30484 0 2.00568C0 1.71903 0.066 1.44577 0.199833 1.18501C0.386833 0.859961 0.681083 0.599204 1.0285 0.456324C1.26958 0.364345 1.991 0.221465 2.00383 0.221465C2.79308 0.0785842 4.0755 0 5.49267 0C6.84292 0 8.07308 0.0785842 8.87425 0.195567C8.88708 0.208962 9.78358 0.351843 10.0907 0.508118C10.6517 0.794772 11 1.35468 11 1.95389V2.00568C10.9862 2.39592 10.6379 3.21659 10.6251 3.21659C10.0366 4.59628 8.206 7.31815 6.98958 8.41208C6.98958 8.41208 6.677 8.72017 6.48175 8.85412C6.20125 9.06308 5.85383 9.16667 5.50642 9.16667C5.11867 9.16667 4.7575 9.04968 4.46325 8.82822Z" fill="#262626"/>
</svg>
