<svg width="263" height="269" viewBox="0 0 263 269" fill="none" xmlns="http://www.w3.org/2000/svg">
<mask id="mask0_0_163" style="mask-type:alpha" maskUnits="userSpaceOnUse" x="0" y="0" width="281" height="269">
<rect width="281" height="269" rx="16" fill="#F2DCF6"/>
</mask>
<g mask="url(#mask0_0_163)">
<path d="M-7.91618 116.508C-7.91618 125.247 0.187554 132.432 6.07657 125.977C9.78768 121.908 11.8726 116.39 11.8726 110.637C11.8726 104.883 9.78768 99.3656 6.07657 95.2973C0.187558 88.8414 -7.91617 96.0272 -7.91617 104.766L-7.91617 110.637L-7.91618 116.508Z" fill="#F2DCF6"/>
<path d="M231.096 -8.67711C223.684 -8.67711 217.318 -1.88089 222.313 3.59461C225.282 6.84928 229.309 8.67773 233.507 8.67773C237.706 8.67773 241.733 6.84928 244.702 3.59462C249.696 -1.88088 243.33 -8.67711 235.919 -8.67711L233.507 -8.67711L231.096 -8.67711Z" fill="#F2DCF6"/>
<path d="M204.727 276.593C210.786 276.593 215.952 271.021 211.785 266.622C209.28 263.978 205.882 262.492 202.34 262.492C198.797 262.492 195.4 263.978 192.895 266.622C188.728 271.021 193.894 276.593 199.953 276.593H202.34H204.727Z" fill="#F2DCF6"/>
</g>
<ellipse cx="37.1778" cy="30.3708" rx="4.13088" ry="4.33871" fill="#F2DCF6"/>
<ellipse cx="180.726" cy="13.0164" rx="4.13088" ry="4.33871" fill="#F2DCF6"/>
<ellipse cx="258.18" cy="44.4725" rx="4.13088" ry="4.33871" fill="#F2DCF6"/>
<ellipse cx="16.5235" cy="247.306" rx="4.13088" ry="4.33871" fill="#F2DCF6"/>
</svg>
