<svg width="141" height="34" viewBox="0 0 141 34" fill="none" xmlns="http://www.w3.org/2000/svg">
<path d="M138.909 8.78364C139.562 9.01253 139.905 9.72718 139.676 10.3799L135.946 21.0158C135.717 21.6685 135.003 22.0121 134.35 21.7832C133.697 21.5543 133.354 20.8396 133.583 20.187L136.898 10.7327L127.444 7.41719C126.791 7.1883 126.448 6.47365 126.677 5.82097C126.906 5.16829 127.62 4.82475 128.273 5.05364L138.909 8.78364ZM1.85682 8.87669C2.74422 9.38116 3.62505 9.87625 4.49957 10.362L3.28339 12.5516C2.40141 12.0617 1.51337 11.5626 0.618998 11.0541L1.85682 8.87669ZM9.78383 13.2228C11.5896 14.1739 13.3692 15.0829 15.1253 15.9502L14.0161 18.196C12.2394 17.3185 10.4404 16.3995 8.61659 15.4388L9.78383 13.2228ZM20.5516 18.5305C22.4099 19.3786 24.2433 20.1776 26.0553 20.9279L25.097 23.2421C23.2562 22.4798 21.3954 21.6688 19.5116 20.809L20.5516 18.5305ZM31.6268 23.1053C33.5344 23.8049 35.421 24.4485 37.2905 25.0362L36.5393 27.4256C34.6307 26.8255 32.707 26.1693 30.7643 25.4567L31.6268 23.1053ZM43.0349 26.6798C44.9863 27.1819 46.9236 27.6217 48.8516 27.9998L48.3696 30.4576C46.3925 30.0699 44.4079 29.6193 42.4109 29.1055L43.0349 26.6798ZM54.7354 28.9658C56.7135 29.2268 58.6877 29.4226 60.6634 29.5535L60.4977 32.0527C58.4675 31.9181 56.4392 31.717 54.4077 31.4489L54.7354 28.9658ZM66.618 29.7524C68.5936 29.7538 70.5768 29.6913 72.5729 29.5654L72.7306 32.0651C70.6823 32.1944 68.6459 32.2585 66.6162 32.2571L66.618 29.7524ZM78.5144 29.0086C80.4619 28.7677 82.4266 28.4683 84.4131 28.1107L84.8568 30.5758C82.8268 30.9412 80.8167 31.2476 78.822 31.4944L78.5144 29.0086ZM90.2708 26.9036C92.1803 26.4619 94.1133 25.9689 96.0737 25.425L96.7433 27.8385C94.7499 28.3916 92.7818 28.8935 90.8354 29.3439L90.2708 26.9036ZM101.81 23.7141C103.679 23.1191 105.576 22.4804 107.502 21.7982L108.338 24.1592C106.388 24.8498 104.466 25.4972 102.57 26.1008L101.81 23.7141ZM113.147 19.7084C114.976 19.0033 116.832 18.2616 118.719 17.4833L119.674 19.7987C117.771 20.584 115.896 21.3329 114.048 22.0454L113.147 19.7084ZM124.251 15.1348C126.055 14.3488 127.886 13.5315 129.747 12.683L130.786 14.9621C128.913 15.8159 127.069 16.6389 125.252 17.4309L124.251 15.1348ZM135.209 10.145C136.116 9.71579 137.03 9.2797 137.952 8.83671L139.037 11.0941C138.111 11.5393 137.192 11.9776 136.28 12.4091L135.209 10.145ZM139.323 7.60186C140.629 8.05964 141.316 9.48895 140.858 10.7943L133.398 32.0663C132.94 33.3716 131.511 34.0587 130.206 33.6009C128.9 33.1432 128.213 31.7139 128.671 30.4085L135.302 11.5001L116.394 4.86897C115.088 4.41119 114.401 2.98188 114.859 1.67653C115.317 0.371172 116.746 -0.315921 118.051 0.141861L139.323 7.60186ZM2.47573 7.78798C3.35965 8.29046 4.23687 8.78352 5.10766 9.2672L2.6753 13.6464C1.78959 13.1544 0.897938 12.6533 8.63498e-05 12.1428L2.47573 7.78798ZM10.3674 12.1147C12.1641 13.0611 13.9341 13.9652 15.6798 14.8274L13.4616 19.3188C11.6746 18.4362 9.86585 17.5123 8.03298 16.5469L10.3674 12.1147ZM21.0716 17.3912C22.9171 18.2335 24.7369 19.0266 26.5344 19.7709L24.6179 24.3991C22.7626 23.6309 20.8882 22.8139 18.9916 21.9483L21.0716 17.3912ZM32.058 21.9295C33.9481 22.6228 35.8161 23.2599 37.6661 23.8415L36.1637 28.6203C34.2355 28.0141 32.2933 27.3515 30.333 26.6325L32.058 21.9295ZM43.3469 25.467C45.2755 25.9631 47.1891 26.3976 49.0926 26.7709L48.1286 31.6866C46.1269 31.294 44.1186 30.838 42.0988 30.3184L43.3469 25.467ZM54.8992 27.7242C56.8507 27.9817 58.7979 28.1748 60.7462 28.3039L60.4149 33.3023C58.3573 33.1659 56.3021 32.9621 54.2439 32.6905L54.8992 27.7242ZM66.6189 28.5001C68.5675 28.5014 70.5241 28.4398 72.494 28.3155L72.8095 33.315C70.7351 33.4459 68.6721 33.5109 66.6153 33.5094L66.6189 28.5001ZM78.3607 27.7658C80.2845 27.5277 82.2265 27.2318 84.1913 26.8782L85.0787 31.8083C83.0269 32.1777 80.9941 32.4875 78.9758 32.7372L78.3607 27.7658ZM89.9885 25.6835C91.8795 25.246 93.795 24.7576 95.7389 24.2183L97.0782 29.0453C95.0682 29.603 93.0826 30.1094 91.1176 30.564L89.9885 25.6835ZM101.43 22.5208C103.286 21.9301 105.17 21.2957 107.084 20.6177L108.756 25.3397C106.794 26.0346 104.86 26.6862 102.949 27.2942L101.43 22.5208ZM112.697 18.5399C114.516 17.8385 116.363 17.1004 118.241 16.3256L120.152 20.9564C118.24 21.7451 116.356 22.4977 114.499 23.2139L112.697 18.5399ZM123.751 13.9868C125.548 13.2037 127.373 12.3893 129.228 11.5435L131.306 16.1016C129.427 16.9581 127.577 17.784 125.753 18.5789L123.751 13.9868ZM134.673 9.01289C135.578 8.58487 136.49 8.14991 137.409 7.70802L139.58 12.2228C138.651 12.6691 137.73 13.1085 136.816 13.5411L134.673 9.01289Z" fill="#C3C3C3"/>
</svg>
