<svg width="25" height="21" viewBox="0 0 25 21" fill="none" xmlns="http://www.w3.org/2000/svg">
<g filter="url(#filter0_f_201_3384)">
<path d="M19.4204 16.085C19.4202 16.1821 19.3954 16.2782 19.3475 16.3678C19.2995 16.4575 19.2293 16.5389 19.1409 16.6075C19.0525 16.676 18.9475 16.7303 18.8321 16.7673C18.7167 16.8043 18.593 16.8233 18.4682 16.8231H6.70848C6.53211 16.8241 6.35888 16.7869 6.20828 16.7155C6.05768 16.6441 5.9357 16.5414 5.85608 16.419C5.77646 16.2966 5.74236 16.1593 5.75762 16.0227C5.77288 15.886 5.83689 15.7554 5.94245 15.6455L6.1628 15.3991L15.0741 5.49309L6.74442 5.49309C6.49011 5.4932 6.24569 5.4164 6.06283 5.27893C5.87998 5.14145 5.773 4.95407 5.76451 4.75637C5.76417 4.65926 5.7887 4.56306 5.83665 4.4734C5.88461 4.38373 5.95503 4.30239 6.04382 4.2341C6.22179 4.09551 6.46311 4.0174 6.71495 4.01687L18.3898 4.01687C18.5552 4.01719 18.7175 4.05146 18.8604 4.11622C19.0033 4.18098 19.1216 4.27393 19.2035 4.38568C19.2854 4.49742 19.3279 4.624 19.3267 4.75262C19.3255 4.88124 19.2807 5.00733 19.1968 5.11816L19.1346 5.19057L18.9549 5.3888L10.1515 15.3469H18.4682C18.593 15.3467 18.7167 15.3656 18.8321 15.4026C18.9475 15.4396 19.0525 15.4939 19.1409 15.5625C19.2293 15.631 19.2995 15.7125 19.3475 15.8021C19.3954 15.8918 19.4202 15.9879 19.4204 16.085Z" fill="white"/>
<path d="M9.40675 10.8346L8.38586 11.9932L4.76169 11.9932C4.66387 11.9932 4.56702 11.9782 4.47666 11.9491C4.38629 11.92 4.30418 11.8773 4.23502 11.8235C4.16586 11.7697 4.11099 11.7058 4.07356 11.6355C4.03613 11.5653 4.01687 11.4899 4.01687 11.4139C4.01687 11.3378 4.03613 11.2625 4.07356 11.1922C4.11099 11.1219 4.16586 11.058 4.23502 11.0042C4.30418 10.9504 4.38629 10.9078 4.47666 10.8786C4.56702 10.8495 4.66387 10.8346 4.76169 10.8346H9.40675Z" fill="white"/>
<path d="M20.983 11.4139C20.9834 11.49 20.9645 11.5655 20.9272 11.6359C20.8899 11.7064 20.8351 11.7704 20.7658 11.8242C20.6966 11.8781 20.6143 11.9207 20.5237 11.9497C20.4332 11.9787 20.3361 11.9935 20.2382 11.9932H13.8943L14.9152 10.8346H20.2378C20.3357 10.8345 20.4326 10.8495 20.523 10.8786C20.6134 10.9077 20.6955 10.9503 20.7647 11.0041C20.8339 11.0579 20.8888 11.1218 20.9263 11.1921C20.9637 11.2624 20.983 11.3378 20.983 11.4139Z" fill="white"/>
<path d="M11.1541 8.84377L10.1318 10.0024L4.76169 10.0024C4.56415 10.0024 4.3747 9.94135 4.23502 9.83271C4.09534 9.72407 4.01687 9.57672 4.01687 9.42308C4.01687 9.26944 4.09534 9.12209 4.23502 9.01345C4.3747 8.90481 4.56415 8.84377 4.76169 8.84377H11.1541Z" fill="white"/>
<path d="M20.9831 9.42559C20.9836 9.50176 20.9646 9.57724 20.9273 9.64768C20.89 9.71811 20.8352 9.78211 20.7659 9.83597C20.6967 9.88983 20.6144 9.93248 20.5238 9.96148C20.4333 9.99047 20.3362 10.0052 20.2383 10.0049H15.6472L16.6695 8.84377H20.2383C20.3364 8.84377 20.4335 8.85884 20.5241 8.88811C20.6147 8.91738 20.6969 8.96028 20.7661 9.01434C20.8353 9.0684 20.8901 9.13256 20.9274 9.20313C20.9646 9.27371 20.9836 9.34931 20.9831 9.42559Z" fill="white"/>
</g>
<defs>
<filter id="filter0_f_201_3384" x="0" y="0" width="25" height="20.84" filterUnits="userSpaceOnUse" color-interpolation-filters="sRGB">
<feFlood flood-opacity="0" result="BackgroundImageFix"/>
<feBlend mode="normal" in="SourceGraphic" in2="BackgroundImageFix" result="shape"/>
<feGaussianBlur stdDeviation="2" result="effect1_foregroundBlur_201_3384"/>
</filter>
</defs>
</svg>
