<svg width="208" height="41" viewBox="0 0 208 41" fill="none" xmlns="http://www.w3.org/2000/svg">
<path d="M207.208 34.453C207.34 34.8472 207.127 35.2735 206.733 35.405L200.308 37.5486C199.914 37.6801 199.488 37.4671 199.356 37.0729C199.224 36.6787 199.437 36.2524 199.832 36.1209L205.542 34.2155L203.637 28.5048C203.506 28.1105 203.719 27.6843 204.113 27.5527C204.507 27.4212 204.933 27.6342 205.065 28.0284L207.208 34.453ZM0.308504 25.2781C3.67731 23.7636 6.98474 22.3207 10.2359 20.949L10.821 22.3357C7.58123 23.7026 4.2845 25.1408 0.925623 26.6508L0.308504 25.2781ZM30.3644 13.1241C37.4798 10.6165 44.3465 8.49543 51.0304 6.75578L51.4095 8.21231C44.771 9.94015 37.9448 12.0485 30.8646 14.5436L30.3644 13.1241ZM72.2265 2.43375C79.5343 1.38002 86.6938 0.822286 93.8046 0.752407L93.8194 2.25739C86.778 2.32659 79.6854 2.87887 72.4412 3.9234L72.2265 2.43375ZM115.417 2.03976C122.419 2.9377 129.468 4.29969 136.659 6.11655L136.291 7.57576C129.153 5.77242 122.163 4.42227 115.225 3.53259L115.417 2.03976ZM157.351 12.4223C163.865 14.7213 170.551 17.3532 177.472 20.312L176.88 21.6959C169.985 18.7479 163.329 16.1282 156.85 13.8415L157.351 12.4223ZM197.113 29.2547C200.297 30.783 203.534 32.3709 206.831 34.018L206.158 35.3644C202.868 33.7205 199.637 32.1361 196.461 30.6115L197.113 29.2547ZM207.922 34.2148C208.185 35.0033 207.759 35.8558 206.971 36.1189L194.122 40.406C193.333 40.669 192.481 40.2431 192.218 39.4546C191.955 38.6661 192.38 37.8137 193.169 37.5506L204.59 33.7398L200.78 22.3183C200.517 21.5299 200.943 20.6774 201.731 20.4143C202.52 20.1512 203.372 20.5772 203.635 21.3657L207.922 34.2148ZM-5.59337e-05 24.5917C3.37371 23.075 6.6865 21.6298 9.94338 20.2557L11.1135 23.029C7.87948 24.3935 4.5881 25.8294 1.23418 27.3371L-5.59337e-05 24.5917ZM30.1142 12.4144C37.2473 9.90059 44.1343 7.77307 50.8408 6.02752L51.599 8.94058C44.9832 10.6625 38.1773 12.7644 31.1147 15.2534L30.1142 12.4144ZM72.1191 1.68893C79.4588 0.630604 86.6517 0.0701363 93.7972 -8.38137e-05L93.8267 3.00988C86.8201 3.07874 79.7609 3.62829 72.5486 4.66823L72.1191 1.68893ZM115.512 1.29335C122.546 2.19541 129.625 3.56333 136.844 5.38695L136.106 8.30536C128.995 6.50879 122.035 5.16455 115.13 4.27901L115.512 1.29335ZM157.601 11.7126C164.132 14.0178 170.834 16.6558 177.768 19.6201L176.585 22.3879C169.702 19.4453 163.061 16.8317 156.599 14.5511L157.601 11.7126ZM197.438 28.5763C200.626 30.1064 203.867 31.6961 207.167 33.3448L205.822 36.0375C202.535 34.3953 199.308 32.8126 196.136 31.2899L197.438 28.5763Z" fill="#298FFE"/>
</svg>
