<svg width="25" height="25" viewBox="0 0 25 25" fill="none" xmlns="http://www.w3.org/2000/svg">
<g clip-path="url(#clip0_207_1560)">
<path d="M12.5 25C19.4036 25 25 19.4036 25 12.5C25 5.59644 19.4036 0 12.5 0C5.59644 0 0 5.59644 0 12.5C0 19.4036 5.59644 25 12.5 25Z" fill="#298FFE"/>
<path d="M10.2084 18.2293C9.80341 18.2293 9.87227 18.0764 9.73258 17.6908L8.54175 13.7717L17.7084 8.3335" fill="#C8DAEA"/>
<path d="M10.2083 18.2293C10.5208 18.2293 10.6588 18.0863 10.8333 17.9168L12.4999 16.2961L10.421 15.0425" fill="#A9C9DD"/>
<path d="M10.4208 15.0425L15.4583 18.7643C16.0332 19.0815 16.448 18.9172 16.5913 18.2306L18.6418 8.56783C18.8517 7.72616 18.3209 7.34429 17.7709 7.59397L5.73032 12.2368C4.90845 12.5665 4.91334 13.025 5.58053 13.2293L8.67043 14.1938L15.8239 9.68074C16.1616 9.47595 16.4716 9.58595 16.2172 9.81179" fill="white"/>
</g>
<defs>
<clipPath id="clip0_207_1560">
<rect width="25" height="25" fill="white"/>
</clipPath>
</defs>
</svg>
