<svg width="24" height="24" viewBox="0 0 24 24" fill="none" xmlns="http://www.w3.org/2000/svg">
<path d="M22.25 12.25C22.25 8.7399 21.6745 6.16107 20.0067 4.4933C18.3389 2.82552 15.7601 2.25 12.25 2.25C8.7399 2.25 6.16107 2.82552 4.4933 4.4933C2.82552 6.16107 2.25 8.7399 2.25 12.25C2.25 15.7601 2.82552 18.3389 4.4933 20.0067C6.16107 21.6745 8.7399 22.25 12.25 22.25C15.7601 22.25 18.3389 21.6745 20.0067 20.0067C21.6745 18.3389 22.25 15.7601 22.25 12.25Z" stroke="#606060" stroke-width="1.5" stroke-linecap="round" stroke-linejoin="round"/>
<path fill-rule="evenodd" clip-rule="evenodd" d="M7.66667 10.5833V17.25V10.5833Z" fill="white"/>
<path d="M7.66667 10.5833V17.25" stroke="#606060" stroke-width="1.5" stroke-linecap="round" stroke-linejoin="round"/>
<path fill-rule="evenodd" clip-rule="evenodd" d="M12.25 7.25V17.25V7.25Z" fill="white"/>
<path d="M12.25 7.25V17.25" stroke="#606060" stroke-width="1.5" stroke-linecap="round" stroke-linejoin="round"/>
<path fill-rule="evenodd" clip-rule="evenodd" d="M16.8334 13.9167V17.25V13.9167Z" fill="white"/>
<path d="M16.8334 13.9167V17.25" stroke="#606060" stroke-width="1.5" stroke-linecap="round" stroke-linejoin="round"/>
<path fill-rule="evenodd" clip-rule="evenodd" d="M7.66667 10.5833V17.25V10.5833Z" fill="white"/>
<path d="M7.66667 10.5833V17.25" stroke="#606060" stroke-width="1.5" stroke-linecap="round" stroke-linejoin="round"/>
<path fill-rule="evenodd" clip-rule="evenodd" d="M12.25 7.25V17.25V7.25Z" fill="white"/>
<path d="M12.25 7.25V17.25" stroke="#606060" stroke-width="1.5" stroke-linecap="round" stroke-linejoin="round"/>
<path fill-rule="evenodd" clip-rule="evenodd" d="M16.8334 13.9167V17.25V13.9167Z" fill="white"/>
<path d="M16.8334 13.9167V17.25" stroke="#606060" stroke-width="1.5" stroke-linecap="round" stroke-linejoin="round"/>
</svg>
