<svg width="29" height="27" viewBox="0 0 29 27" fill="none" xmlns="http://www.w3.org/2000/svg">
<path d="M14.5 3.3885V25.5993M14.5 25.5993C14.5 25.608 14.7757 25.614 15.0291 25.6108M14.5 25.5993C14.5 25.608 14.2243 25.614 13.9709 25.6108" stroke="#298FFE" stroke-width="2.5"/>
<path d="M27.7281 23.0158V4.2862C27.7281 3.37832 27.1517 2.56191 26.2728 2.22473C22.9612 0.954328 19.2669 0.954328 15.9553 2.22473L14.5 2.78301L13.0447 2.22473C9.73311 0.954328 6.03882 0.954328 2.7272 2.22473C1.84827 2.56191 1.27193 3.37832 1.27193 4.2862V23.0158C1.27193 24.2624 2.58478 25.1149 3.79168 24.6519C6.41997 23.6436 9.35196 23.6436 11.9803 24.6519L14.4819 25.6116H14.5181L17.0197 24.6519C19.648 23.6436 22.58 23.6436 25.2083 24.6519C26.4152 25.1149 27.7281 24.2624 27.7281 23.0158Z" stroke="#262626" stroke-width="2.5"/>
</svg>
