<svg width="35" height="35" viewBox="0 0 35 35" fill="none" xmlns="http://www.w3.org/2000/svg">
<path d="M6.06763 21.0537C6.06763 21.0537 6.24421 23.2458 6.28525 23.937C6.33997 24.864 6.69314 25.8996 7.28259 26.6185C8.11454 27.6376 9.09447 27.9971 10.4027 27.9996C11.941 28.0021 23.1269 28.0021 24.6652 27.9996C25.9734 27.9971 26.9533 27.6376 27.7853 26.6185C28.3747 25.8996 28.7279 24.864 28.7838 23.937C28.8236 23.2458 29.0002 21.0537 29.0002 21.0537" stroke="#298FFE" stroke-width="2.5" stroke-linecap="round" stroke-linejoin="round"/>
<path d="M13.1458 8.25285V7.78491C13.1458 6.24615 14.3744 5 15.8915 5H19.1024C20.6183 5 21.8482 6.24615 21.8482 7.78491L21.8495 8.25285" stroke="#262626" stroke-width="2.5" stroke-linecap="round" stroke-linejoin="round"/>
<path d="M17.4968 22.5676V20.9355" stroke="#262626" stroke-width="2.5" stroke-linecap="round" stroke-linejoin="round"/>
<path fill-rule="evenodd" clip-rule="evenodd" d="M6 12.1119V16.4848C8.38516 18.0803 11.2429 19.1978 14.3791 19.6405C14.7547 18.2518 15.9896 17.234 17.4905 17.234C18.9679 17.234 20.2276 18.2518 20.5783 19.6531C23.727 19.2104 26.5959 18.0929 28.9935 16.4848V12.1119C28.9935 9.97527 27.2986 8.25488 25.192 8.25488H9.81402C7.70742 8.25488 6 9.97527 6 12.1119Z" stroke="#262626" stroke-width="2.5" stroke-linecap="round" stroke-linejoin="round"/>
</svg>
