<svg width="20" height="20" viewBox="0 0 20 20" fill="none" xmlns="http://www.w3.org/2000/svg">
<path d="M9.0575 13.7046C9.00917 13.6594 8.8025 13.4887 8.6325 13.3298C7.56333 12.3977 5.81333 9.9661 5.27917 8.69342C5.19333 8.50015 5.01167 8.0115 5 7.75041C5 7.50024 5.06 7.26176 5.18167 7.03419C5.35167 6.75051 5.61917 6.52294 5.935 6.39825C6.15417 6.31797 6.81 6.19328 6.82167 6.19328C7.53917 6.06858 8.705 6 9.99333 6C11.2208 6 12.3392 6.06858 13.0675 6.17068C13.0792 6.18237 13.8942 6.30706 14.1733 6.44345C14.6833 6.69362 15 7.18227 15 7.70521V7.75041C14.9875 8.09099 14.6708 8.80721 14.6592 8.80721C14.1242 10.0113 12.46 12.3868 11.3542 13.3415C11.3542 13.3415 11.07 13.6103 10.8925 13.7272C10.6375 13.9096 10.3217 14 10.0058 14C9.65333 14 9.325 13.8979 9.0575 13.7046Z" fill="#298FFE"/>
</svg>
