<svg width="29" height="29" viewBox="0 0 29 29" fill="none" xmlns="http://www.w3.org/2000/svg">
<path d="M21.0973 8.81621C24.043 8.81621 26.4407 11.3051 26.4407 14.3642L26.4407 20.4449C26.4407 23.4965 24.049 25.9791 21.1093 25.9791L7.74953 25.9791C4.80259 25.9791 2.4037 23.4915 2.4037 20.4324L2.4037 14.3517C2.4037 11.3001 4.79659 8.81621 7.73751 8.81621H8.86725L21.0973 8.81621Z" fill="white"/>
<path d="M15.0787 19.3785L18.5748 15.7923C18.9354 15.4216 18.9354 14.8252 18.5724 14.4557C18.2095 14.0875 17.6242 14.0888 17.2636 14.4582L15.3491 16.4219L15.3491 3.96586C15.3491 3.44425 14.9344 3.02082 14.4224 3.02082C13.9117 3.02082 13.4982 3.44425 13.4982 3.96586L13.4982 16.4219L11.5825 14.4582C11.2219 14.0888 10.6366 14.0875 10.2737 14.4557C10.0922 14.6411 10.0008 14.8828 10.0008 15.1259C10.0008 15.3664 10.0922 15.6082 10.2713 15.7923L13.7674 19.3785C13.9417 19.5565 14.1773 19.6571 14.4224 19.6571C14.6688 19.6571 14.9044 19.5565 15.0787 19.3785Z" fill="#11BB69"/>
</svg>
