<svg width="7" height="14" viewBox="0 0 7 14" fill="none" xmlns="http://www.w3.org/2000/svg">
<path d="M0 9.33333H1.4C1.4 10.1733 2.359 10.8889 3.5 10.8889C4.641 10.8889 5.6 10.1733 5.6 9.33333C5.6 8.47778 4.872 8.16667 3.332 7.75444C1.848 7.34222 0 6.82889 0 4.66667C0 3.27444 1.029 2.09222 2.45 1.69556V0H4.55V1.69556C5.971 2.09222 7 3.27444 7 4.66667H5.6C5.6 3.82667 4.641 3.11111 3.5 3.11111C2.359 3.11111 1.4 3.82667 1.4 4.66667C1.4 5.52222 2.128 5.83333 3.668 6.24556C5.152 6.65778 7 7.17111 7 9.33333C7 10.7256 5.971 11.9078 4.55 12.3044V14H2.45V12.3044C1.029 11.9078 0 10.7256 0 9.33333Z" fill="#606060"/>
</svg>
