<svg width="218" height="44" viewBox="0 0 218 44" fill="none" xmlns="http://www.w3.org/2000/svg">
<g clip-path="url(#clip0_207_1542)">
<path d="M215.47 13.4575C214.956 13.4577 214.454 13.6142 214.032 13.9061C213.61 14.1979 213.288 14.6112 213.108 15.0904L208.387 27.5727L203.668 15.0904C203.561 14.769 203.39 14.4723 203.166 14.2181C202.941 13.9639 202.667 13.7575 202.361 13.6112C202.054 13.4649 201.72 13.3817 201.381 13.3667C201.041 13.3517 200.701 13.4051 200.383 13.5238C200.064 13.6425 199.773 13.8239 199.526 14.0573C199.28 14.2907 199.083 14.5711 198.949 14.8819C198.814 15.1927 198.744 15.5273 198.742 15.8658C198.74 16.2042 198.807 16.5395 198.939 16.8516L205.681 34.679L205.08 36.3143C204.603 37.5343 204.059 38.0446 203.31 38.2345C203.226 38.2572 203.141 38.2754 203.055 38.2891C203.033 38.2891 203.016 38.2891 202.993 38.2891C202.513 38.4299 202.085 38.7071 201.761 39.0865C201.437 39.466 201.232 39.9313 201.17 40.4252V41.0613C201.246 41.672 201.542 42.2345 202.003 42.645C202.464 43.0555 203.059 43.2863 203.677 43.2948H203.713C203.83 43.2948 203.952 43.2734 204.059 43.2663C204.076 43.2663 204.081 43.2663 204.09 43.2663C207.988 42.9079 208.69 40.8097 210.274 36.7771L217.839 16.8516C217.982 16.4707 218.03 16.0612 217.979 15.6578C217.928 15.2545 217.78 14.8694 217.548 14.5353C217.315 14.2012 217.004 13.9281 216.643 13.7391C216.281 13.5502 215.879 13.4511 215.47 13.4503V13.4575Z" fill="#262626"/>
<path d="M79.035 14.4504C78.7755 14.1915 78.4625 13.992 78.1176 13.8658C77.7727 13.7395 77.4044 13.6896 77.0381 13.7194C76.3903 13.7841 75.7905 14.0882 75.3571 14.5716C74.9238 15.055 74.6885 15.6826 74.6977 16.3302V32.4083C74.6958 33.0765 74.9601 33.7181 75.4328 34.1928C75.9054 34.6675 76.5479 34.9365 77.2194 34.9409C77.9042 34.9241 78.5553 34.6417 79.0336 34.1539C79.5119 33.666 79.7796 33.0115 79.7794 32.33V16.2424C79.7803 15.9096 79.7151 15.5799 79.5873 15.2723C79.4595 14.9648 79.2718 14.6854 79.035 14.4504ZM77.2194 4.76172C75.4397 4.76172 74.3398 5.88914 74.3398 7.62654C74.3398 9.36394 75.4349 10.5175 77.2027 10.5246C77.9583 10.5196 78.6827 10.224 79.2243 9.69975C79.7659 9.17554 80.0827 8.46328 80.1086 7.71199C80.1396 5.93423 78.9897 4.76172 77.2194 4.76172Z" fill="#262626"/>
<path d="M107.66 13.46C104.886 13.46 102.61 14.8841 101.192 17.317C99.6604 14.877 97.2436 13.46 94.1112 13.46C91.6968 13.46 89.4208 14.8082 88.6407 16.6856V16.2109C88.6388 15.8652 88.5653 15.5235 88.4246 15.2073C88.284 14.8912 88.0793 14.6072 87.8234 14.3733C87.5675 14.1394 87.2658 13.9606 86.9372 13.8479C86.6086 13.7353 86.2602 13.6913 85.9137 13.7188C85.272 13.7811 84.6772 14.0808 84.2469 14.5586C83.8166 15.0363 83.5822 15.6573 83.59 16.2988V32.4386C83.5885 32.7825 83.6584 33.123 83.7952 33.4389C83.9321 33.7547 84.133 34.0391 84.3854 34.2741C84.6377 34.5091 84.9362 34.6898 85.262 34.8049C85.5878 34.9199 85.9339 34.9668 86.2788 34.9426C86.9282 34.887 87.5324 34.5892 87.9705 34.109C88.4085 33.6287 88.6479 33.0016 88.6407 32.3531V24.3236C88.6407 20.9603 90.5492 18.4848 93.2213 18.4848C96.0341 18.4848 97.8425 20.787 97.8425 24.2856V32.4053C97.8418 32.7747 97.9225 33.1398 98.0788 33.4749C98.2351 33.8099 98.4633 34.1069 98.7473 34.3449C99.0313 34.5828 99.3642 34.7561 99.7227 34.8524C100.082 34.9487 100.457 34.9657 100.823 34.9023C101.422 34.7881 101.961 34.4681 102.346 33.9981C102.732 33.5282 102.939 32.9383 102.932 32.3318V24.2856C102.932 20.9627 104.855 18.4848 107.484 18.4848C110.327 18.4848 112.143 20.787 112.143 24.2856V32.4053C112.142 33.0729 112.406 33.7138 112.878 34.1883C113.35 34.6628 113.991 34.9322 114.662 34.9379C115.348 34.9218 115.999 34.6396 116.478 34.1517C116.957 33.6638 117.225 33.0089 117.225 32.327V24.2856C117.225 17.7822 113.532 13.46 107.66 13.46Z" fill="#262626"/>
<path d="M141.235 14.443C140.977 14.1877 140.665 13.9909 140.323 13.8659C139.981 13.741 139.616 13.6909 139.253 13.719C138.608 13.7681 138.009 14.0663 137.583 14.5498C137.155 15.0331 136.919 15.6551 136.919 16.299V16.6836C136.03 14.7729 133.293 13.458 130.55 13.458C124.325 13.458 120.379 17.7825 120.379 24.2859C120.369 25.5978 120.546 26.9044 120.906 28.1666C122.176 32.484 125.659 35.147 130.547 35.147C131.246 35.1494 131.943 35.0697 132.623 34.9097C134.579 34.435 136.275 33.3455 136.917 31.9689V32.4436C136.917 32.7734 136.982 33.0999 137.109 33.4046C137.236 33.7093 137.422 33.9861 137.656 34.2193C137.891 34.4525 138.169 34.6374 138.475 34.7636C138.781 34.8898 139.11 34.9548 139.441 34.9548C139.773 34.9548 140.101 34.8898 140.407 34.7636C140.713 34.6374 140.992 34.4525 141.226 34.2193C141.46 33.9861 141.646 33.7093 141.773 33.4046C141.9 33.0999 141.965 32.7734 141.965 32.4436V16.2207C141.967 15.8911 141.904 15.5644 141.779 15.2593C141.653 14.9542 141.469 14.6768 141.235 14.443ZM131.215 30.0891C127.765 30.0891 125.489 27.7939 125.489 24.2859C125.489 20.7778 127.765 18.485 131.215 18.485C134.555 18.485 136.941 20.9226 136.941 24.3239C136.941 27.7251 134.612 30.0891 131.201 30.0891H131.215Z" fill="#262626"/>
<path d="M69.2299 30.0204H56.9123L70.7496 9.90501C70.9882 9.5597 71.1747 9.18146 71.3031 8.78235C71.428 8.37864 71.4915 7.95864 71.4916 7.53626C71.4919 7.18707 71.423 6.84126 71.2888 6.51859C71.1546 6.19593 70.9578 5.90275 70.7097 5.65584C70.4615 5.40893 70.1668 5.21313 69.8425 5.07965C69.5181 4.94617 69.1705 4.87762 68.8195 4.87793H52.6609C52.3363 4.87793 52.0149 4.94154 51.715 5.06511C51.4151 5.18868 51.1427 5.36981 50.9132 5.59814C50.6836 5.82648 50.5016 6.09755 50.3774 6.39588C50.2532 6.69422 50.1892 7.01397 50.1892 7.33688C50.1892 7.6598 50.2532 7.97955 50.3774 8.27788C50.5016 8.57622 50.6836 8.84729 50.9132 9.07562C51.1427 9.30396 51.4151 9.48508 51.715 9.60866C52.0149 9.73223 52.3363 9.79583 52.6609 9.79583H64.697L50.6211 30.208C50.1725 30.8585 49.9322 31.6288 49.9316 32.4177C49.9366 33.0884 50.2081 33.7298 50.6868 34.2021C51.1655 34.6743 51.8126 34.939 52.4867 34.9383H69.2227C69.5473 34.9383 69.8687 34.8747 70.1686 34.7512C70.4685 34.6276 70.7409 34.4465 70.9704 34.2181C71.1999 33.9898 71.382 33.7187 71.5062 33.4204C71.6304 33.1221 71.6944 32.8023 71.6944 32.4794C71.6944 32.1565 71.6304 31.8367 71.5062 31.5384C71.382 31.2401 71.1999 30.969 70.9704 30.7407C70.7409 30.5123 70.4685 30.3312 70.1686 30.2076C69.8687 30.0841 69.5473 30.0204 69.2227 30.0204H69.2299Z" fill="#262626"/>
<path d="M195.139 16.0358V32.4771C195.139 33.1485 194.875 33.7933 194.401 34.272C193.928 34.7508 193.285 35.0251 192.61 35.0357H192.529C191.854 35.0251 191.21 34.7508 190.737 34.272C190.264 33.7933 189.999 33.1485 190 32.4771V32.0831H189.981C189.294 33.4288 187.595 34.4969 185.67 34.9621C184.978 35.13 184.268 35.2153 183.556 35.2161C183.181 35.2161 182.812 35.2018 182.454 35.171C180.031 34.9505 177.765 33.8874 176.053 32.1685L163.575 19.7646C162.571 18.8508 161.19 18.3405 159.543 18.3405C156.203 18.3405 153.794 20.7448 153.72 24.12V24.5116C153.791 27.8796 156.148 30.1486 159.543 30.1486C161.173 30.1486 162.547 29.6431 163.549 28.7459C163.678 28.6299 163.801 28.5071 163.916 28.378L166.565 25.7458C166.619 25.6909 166.687 25.6522 166.763 25.6342C166.833 25.6171 166.908 25.6183 166.978 25.6378C167.048 25.6574 167.112 25.6945 167.163 25.7458L167.512 26.0923L169.914 28.4824L170.415 28.9738C170.455 29.013 170.486 29.0596 170.508 29.1109C170.529 29.1623 170.54 29.2173 170.54 29.2728C170.54 29.3284 170.529 29.3834 170.508 29.4347C170.486 29.486 170.455 29.5326 170.415 29.5719L168.545 31.4564L167.851 32.1543L167.194 32.8141C167.061 32.9351 166.923 33.0514 166.779 33.1677H166.767C165.059 34.5325 162.826 35.292 160.192 35.292C159.481 35.2914 158.772 35.2061 158.081 35.0381C156.113 34.5634 154.402 33.4692 153.734 32.0925H153.715V41.3492C153.72 41.7084 153.651 42.0649 153.511 42.3963C153.372 42.7276 153.165 43.0267 152.904 43.2749C152.643 43.5231 152.333 43.715 151.994 43.8386C151.655 43.9622 151.294 44.0149 150.933 43.9933C150.281 43.9454 149.671 43.6537 149.226 43.177C148.781 42.7002 148.533 42.0735 148.533 41.4228V16.0263C148.534 15.3971 148.765 14.7897 149.184 14.3185C149.604 13.8472 150.181 13.5447 150.809 13.4677H151.437C152.065 13.5441 152.643 13.8465 153.063 14.3177C153.483 14.789 153.714 15.3967 153.715 16.0263V16.4464C153.715 16.4583 153.729 16.463 153.734 16.4464C154.662 14.5239 157.425 13.209 160.192 13.209H160.464C163.181 13.2814 165.769 14.3804 167.7 16.2826L179.507 28.0671C180.693 29.278 182.301 29.99 184 30.0561H184.202C186.937 30.0561 188.998 28.5845 189.733 26.2585C189.907 25.6878 189.994 25.094 189.99 24.4973V23.9918C189.999 22.9856 189.736 21.9955 189.229 21.1246C188.239 19.4631 186.447 18.4164 184.25 18.4164C182.604 18.4164 181.223 18.9315 180.216 19.8405L180.199 19.8571C180.151 19.8999 180.104 19.9473 180.056 19.9924C180.008 20.0375 179.963 20.0874 179.918 20.1372L177.196 22.7481C177.156 22.7877 177.109 22.8191 177.058 22.8406C177.006 22.8621 176.951 22.8731 176.895 22.8731C176.839 22.8731 176.784 22.8621 176.732 22.8406C176.68 22.8191 176.634 22.7877 176.594 22.7481L173.459 19.6103C173.38 19.5311 173.336 19.424 173.336 19.3124C173.336 19.2008 173.38 19.0937 173.459 19.0145L175.862 16.5224L176.559 15.8293C176.63 15.7581 176.702 15.6916 176.773 15.6252C176.845 15.5587 176.924 15.4946 177 15.4306L177.193 15.281C178.88 14.0041 181.051 13.292 183.594 13.292C186.304 13.292 189.007 14.5524 189.99 16.4084V16.0358C189.991 15.3868 190.239 14.7621 190.684 14.288C191.13 13.8139 191.739 13.5258 192.39 13.4819H192.736C193.388 13.5252 193.998 13.8131 194.444 14.2873C194.89 14.7614 195.138 15.3864 195.139 16.0358Z" fill="#298FFE"/>
<path d="M37.1652 37.245C37.164 37.8502 36.9213 38.4301 36.4905 38.8573C36.0597 39.2846 35.476 39.5242 34.8678 39.5236H6.50841C5.90032 39.5236 5.31704 39.2837 4.88638 38.8566C4.45573 38.4295 4.21283 37.85 4.21094 37.245C4.2099 36.7562 4.36904 36.2805 4.66423 35.8897L4.67616 35.8779L5.2058 35.1278L26.6775 4.56899H6.5776C5.96315 4.56993 5.37247 4.33284 4.9307 3.90796C4.48893 3.48308 4.23078 2.90378 4.21094 2.2928C4.20967 1.68679 4.45011 1.10503 4.87949 0.675185C5.30887 0.245336 5.89212 0.00251326 6.50126 0H34.653C35.0526 0.000125483 35.4451 0.105463 35.7905 0.305313C36.1359 0.505164 36.4221 0.792407 36.6198 1.13787C36.8175 1.48333 36.9198 1.8747 36.9163 2.27223C36.9128 2.66975 36.8036 3.05928 36.5998 3.40123L36.4495 3.62197L36.0296 4.23433L14.7917 34.9688H34.8582C35.1593 34.9669 35.4578 35.0241 35.7367 35.137C36.0156 35.2499 36.2694 35.4163 36.4836 35.6268C36.6978 35.8373 36.8683 36.0877 36.9853 36.3637C37.1022 36.6397 37.1634 36.936 37.1652 37.2355V37.245Z" fill="#298FFE"/>
<path d="M12.9904 21.0439L10.5235 24.6184H1.79647C1.32001 24.6184 0.863076 24.4301 0.526173 24.0949C0.18927 23.7597 0 23.3051 0 22.8311C0 22.3571 0.18927 21.9025 0.526173 21.5674C0.863076 21.2322 1.32001 21.0439 1.79647 21.0439H12.9904Z" fill="#298FFE"/>
<path d="M40.9378 22.8312C40.9378 23.3052 40.7485 23.7598 40.4116 24.095C40.0747 24.4302 39.6178 24.6185 39.1413 24.6185H23.832L26.2965 21.044H39.1389C39.3749 21.0433 39.6087 21.089 39.827 21.1785C40.0452 21.2679 40.2435 21.3993 40.4106 21.5651C40.5777 21.7309 40.7103 21.9278 40.8008 22.1447C40.8912 22.3616 40.9378 22.594 40.9378 22.8288V22.8312Z" fill="#298FFE"/>
<path d="M17.2221 14.9053L14.7552 18.4822H1.79585C1.33042 18.4653 0.889702 18.2695 0.566422 17.9359C0.243142 17.6024 0.0625 17.1571 0.0625 16.6937C0.0625 16.2304 0.243142 15.7851 0.566422 15.4515C0.889702 15.118 1.33042 14.9222 1.79585 14.9053H17.2221Z" fill="#298FFE"/>
<path d="M40.9363 16.6949C40.9363 17.1689 40.7471 17.6235 40.4102 17.9587C40.0733 18.2939 39.6163 18.4822 39.1399 18.4822H28.0605L30.5369 14.9053H39.147C39.6225 14.9078 40.0776 15.0975 40.4128 15.4328C40.7481 15.7682 40.9363 16.2219 40.9363 16.6949Z" fill="#298FFE"/>
</g>
<defs>
<clipPath id="clip0_207_1542">
<rect width="218" height="44" fill="white"/>
</clipPath>
</defs>
</svg>
